<svg xmlns="http://www.w3.org/2000/svg" xmlns:xlink="http://www.w3.org/1999/xlink" width="175" height="15" viewBox="0 0 175 15">
  <defs>
    <clipPath id="clip-path">
      <rect id="Rectangle_18069" data-name="Rectangle 18069" width="175" height="12.776" fill="none"/>
    </clipPath>
    <clipPath id="clip-header-logo-labgruppen">
      <rect width="175" height="15"/>
    </clipPath>
  </defs>
  <g id="header-logo-labgruppen" clip-path="url(#clip-header-logo-labgruppen)">
    <g id="Group_27937" data-name="Group 27937" transform="translate(0 1)">
      <g id="Group_27936" data-name="Group 27936" clip-path="url(#clip-path)">
        <path id="Path_17327" data-name="Path 17327" d="M2579.719,13.318a1.173,1.173,0,0,1-.722-.281l-11.308-10.45,0,10.143a.576.576,0,0,1-.572.589h-1.091a.6.6,0,0,1-.589-.589V1.208a.6.6,0,0,1,.589-.592h2.254A1.182,1.182,0,0,1,2569,.9c11.045,10.3,11.172,10.305,11.177,10.31l.189.147,0-10.146a.594.594,0,0,1,.574-.592h1.11a.6.6,0,0,1,.573.592V12.729a.6.6,0,0,1-.573.589Z" transform="translate(-2407.625 -0.578)" fill="#002d36"/>
        <path id="Path_17328" data-name="Path 17328" d="M2294.177,13.308a.56.56,0,0,1-.574-.543V1.147a.559.559,0,0,1,.574-.542h12.456a.583.583,0,0,1,.586.588v.735a.584.584,0,0,1-.586.59l-10.772-.008V5.78l10.19-.01a.6.6,0,0,1,.571.587v.735a.593.593,0,0,1-.571.591l-10.189,0v3.713h10.806a.558.558,0,0,1,.574.54v.83a.56.56,0,0,1-.574.543Z" transform="translate(-2152.516 -0.568)" fill="#002d36"/>
        <path id="Path_17329" data-name="Path 17329" d="M1996.242,13.308a.6.6,0,0,1-.574-.589V1.2a.6.6,0,0,1,.589-.592h9.6a7.294,7.294,0,0,1,3.889.706c.817.58,1.166,1.57,1.166,3.309s-.312,2.674-1.08,3.269-1.254.665-3.038.7c-.234.019-.973.019-2.313.019l-6.556-.01V12.72a.6.6,0,0,1-.574.589Zm1.682-6.619,6.433,0c3.192,0,3.373.064,3.822-.279.283-.224.436-.566.436-1.732,0-1.268-.115-1.553-.389-1.746-.449-.308-.518-.355-3.875-.412h-6.428Z" transform="translate(-1872.908 -0.569)" fill="#002d36"/>
        <path id="Path_17330" data-name="Path 17330" d="M1697.986,13.308a.6.6,0,0,1-.574-.589V1.2A.6.6,0,0,1,1698,.606h9.6a7.294,7.294,0,0,1,3.889.706c.817.58,1.166,1.57,1.166,3.309s-.313,2.674-1.08,3.269-1.254.665-3.038.7c-.234.019-.973.019-2.313.019l-6.556-.01V12.72a.6.6,0,0,1-.574.589Zm1.682-6.619,6.433,0c3.192,0,3.373.064,3.822-.279.283-.224.436-.566.436-1.732,0-1.268-.115-1.553-.389-1.746-.449-.308-.518-.355-3.875-.412h-6.428Z" transform="translate(-1592.999 -0.569)" fill="#002d36"/>
        <path id="Path_17331" data-name="Path 17331" d="M1394.576,13.345a37.261,37.261,0,0,1-5.446-.26,3.481,3.481,0,0,1-2.691-3.592V1.2a.6.6,0,0,1,.589-.592h1.08a.6.6,0,0,1,.589.592V9.261a1.907,1.907,0,0,0,.919,1.792c.393.246.709.343,4.568.343,4.021,0,4.641-.027,5.131-.38.34-.245.878-.613.878-2.065,0-.468,0-7.683,0-7.753a.614.614,0,0,1,.607-.592h1.041a.6.6,0,0,1,.608.592V9.692a3.682,3.682,0,0,1-2.565,3.392,32.791,32.791,0,0,1-5.307.26" transform="translate(-1301.155 -0.569)" fill="#002d36"/>
        <path id="Path_17332" data-name="Path 17332" d="M1096.654,13.308a.588.588,0,0,1-.589-.589V11.594a16.357,16.357,0,0,0-.076-1.732,1.224,1.224,0,0,0-1.184-1.153,25.864,25.864,0,0,0-3.66-.108h-6.189V12.72a.589.589,0,0,1-.589.589h-1.094a.6.6,0,0,1-.574-.589V1.2a.6.6,0,0,1,.589-.592h7.536a44.737,44.737,0,0,1,4.836.147,3.1,3.1,0,0,1,2.458,1.483,4.636,4.636,0,0,1,.444,2.293c0,1.875-.34,2.7-1.3,3.144l-.2.092.187.115a2.3,2.3,0,0,1,.413.325c.6.579.661,1.109.661,3.119V12.72a.585.585,0,0,1-.588.589Zm-11.7-6.621h7.445c.173,0,.453-.01.626-.021.913,0,2.654-.186,3-.694a3.5,3.5,0,0,0,.234-1.46,2,2,0,0,0-.518-1.593c-.476-.328-1.5-.4-4.6-.4h-6.19Z" transform="translate(-1016.098 -0.569)" fill="#002d36"/>
        <path id="Path_17333" data-name="Path 17333" d="M774.216,12.757a49.773,49.773,0,0,1-5.692-.24,2.948,2.948,0,0,1-2.631-2.1,18.228,18.228,0,0,1-.26-4.018,17.286,17.286,0,0,1,.28-4.02C766.476.327,768.2,0,773.466,0c1.872,0,4.595.112,5.4.222A3.441,3.441,0,0,1,781.6,1.936a4,4,0,0,1,.389,1.871.483.483,0,0,1-.139.408.676.676,0,0,1-.414.137h-1.162a.575.575,0,0,1-.6-.52,2.5,2.5,0,0,0-.326-1.341c-.255-.255-.7-.375-2.205-.448-.694-.053-2.345-.093-3.355-.093-3.1,0-4.881.089-5.405.559-.42.36-.57,1.315-.57,3.651a21.331,21.331,0,0,0,.212,3.461c.279,1.054.68,1.189,6.886,1.189,2.916,0,4.054-.149,4.511-.59.245-.243.362-.545.409-2.059l0-.121h-6.276a.559.559,0,0,1-.574-.542v-.83a.559.559,0,0,1,.574-.542h7.9a.675.675,0,0,1,.481.141.484.484,0,0,1,.159.422,15.736,15.736,0,0,1-.22,3.443c-.556,2.318-2.043,2.627-7.653,2.627" transform="translate(-718.537)" fill="#002d36"/>
        <path id="Path_17334" data-name="Path 17334" d="M696.253,168.3a.815.815,0,0,1-.835-.791v-.964a.815.815,0,0,1,.835-.791h.927a.816.816,0,0,1,.836.791v.964a.815.815,0,0,1-.836.791Z" transform="translate(-652.641 -155.558)" fill="#002d36"/>
        <path id="Path_17335" data-name="Path 17335" d="M428.189,13.367c-.169,0-.287-.06-.322-.164a.248.248,0,0,1,.092-.267c.421-.334,1.348-1.074,1.631-1.308a.919.919,0,0,1,.531-.159l3.227,0c4.039,0,4.154-.316,4.154-1.85,0-.751-.14-1.21-.427-1.4-.436-.3-.436-.419-3.724-.472h-6.384v2.84c0,.275-.112.421-.241.421a.307.307,0,0,1-.243-.178c-.044-.074-1.279-2.1-1.388-2.278L425,8.4c-.122-.188-.32-.594-.32-.594V1.277a.591.591,0,0,1,.589-.611h8.641c.849,0,2.289.073,2.327.075a2.951,2.951,0,0,1,2.545,1.486,3.343,3.343,0,0,1,.393,1.827,2.861,2.861,0,0,1-.808,2.41l-.208.173.24.121c.875.445,1.265,1.337,1.265,2.893a3.657,3.657,0,0,1-.771,2.68c-.778.795-1.98,1.037-5.547,1.037Zm-1.222-7.53h6.276c2.354,0,2.818,0,3.19-.224.249-.149.535-.439.535-1.359,0-.893-.186-1.154-.387-1.3-.351-.258-.724-.384-3.338-.384h-6.276Z" transform="translate(-398.558 -0.625)" fill="#002d36"/>
        <path id="Path_17336" data-name="Path 17336" d="M23.047,12.966a.894.894,0,0,0,.72.4h1.266a.489.489,0,0,0,.428-.212.38.38,0,0,0,.056-.2.486.486,0,0,0-.07-.245L18.562,1.064a.9.9,0,0,0-.72-.4H15.756a.9.9,0,0,0-.72.4c-.038.064-4.567,7.556-4.642,7.672a.54.54,0,0,1-.233.1H2.279v-7.6a.586.586,0,0,0-.6-.567H.6a.586.586,0,0,0-.6.567v8.933a.586.586,0,0,0,.6.568H9.191L8.01,12.708a.479.479,0,0,0-.071.245.378.378,0,0,0,.057.2.483.483,0,0,0,.427.212h1.3a.893.893,0,0,0,.72-.4s1.174-2,1.22-2.075c.035-.038.108-.145.2-.157l9.7,0c.078,0,.092.023.155.07a.757.757,0,0,1,.127.117l.474.81ZM12.921,8.834s3.642-6.033,3.691-6.11a.35.35,0,0,1,.158-.092l.023-.006.11.006a.349.349,0,0,1,.178.121l3.577,6.081Z" transform="translate(0 -0.624)" fill="#002d36"/>
      </g>
    </g>
  </g>
</svg>
