<svg id="Layer_1" data-name="Layer 1" xmlns="http://www.w3.org/2000/svg" viewBox="0 0 638 303.93"><defs><style>.cls-1{fill-rule:evenodd;}</style></defs><title>Sennheiser Logo Vector</title><path class="cls-1" d="M507.85,348h-164V512.28h20.35V368.39H489c6.4-9.6,12.8-16,18.9-20.35Zm-15.7,214.83h164V398.62H635.76v143.6H511.05c-6.1,9.6-12.5,16.29-18.9,20.65Zm12.5-29.65c-18,29.37-34.88,29.65-55.52,29.65H343.89V521.29h32.85c21.8,0,39.25-11,48.55-26.74l70.35-116.86C513.37,348.33,530.23,348,550.87,348H656.11v41.28H623.26c-21.8,0-39.25,11-48.54,27L504.65,533.22Z" transform="translate(-181 -348.04)"/><path class="cls-1" d="M222.66,635.12c3.66,4.88,2.44,16.84-9,16.84H181v-10.3h14.4c2.77,0,3.22-2.55,1.56-4.76l-13.63-18.51c-3.66-4.88-2.44-16.84,9.08-16.84H225v10.19H210.58c-2.66,0-3.1,2.66-1.44,4.77l13.52,18.61Zm453.18,0C679.5,640,678.28,652,666.76,652H634.07v-10.3h14.52c2.65,0,3.1-2.55,1.55-4.76l-13.63-18.51c-3.77-4.88-2.55-16.84,9-16.84h32.69v10.19h-14.4c-2.77,0-3.22,2.66-1.56,4.77l13.63,18.61ZM241.5,601.55h44.43v10.64H263.21v9.63h22.72v10H263.21v9.42h22.72V652H241.5V601.55Zm452,0h44.43v10.64H715.18v9.63h22.71v10H715.18v9.42h22.71V652H693.46V601.55Zm-161,0H576.9v10.64H554.18v9.63H576.9v10H554.18v9.42H576.9V652H532.47V601.55Zm-204.88,0H304.77V652h10.3V620.72L335.79,652h22.94V601.55H348.31v31.36l-20.72-31.36Zm71.58,0H376.34V652h10.42V620.72L407.48,652h22.83V601.55H419.89v31.36l-20.72-31.36Zm196.12,0h21.94V652H595.29V601.55Zm-145,0H472.3v19.17h17.39V601.55h21.94V652H489.69V632.91H472.3V652H450.25V601.55Zm338.17,30.36h-9.31V652H757.28V601.55h45.54a15.13,15.13,0,0,1,14.63,13.74c.55,5.87-1.77,11.3-9.75,15.07L819,652H799.28l-10.86-20.05Zm-9.31-20.17h12.74a5.09,5.09,0,0,1,5.1,5.1h0a5.16,5.16,0,0,1-5.1,5.1H779.11v-10.2Z" transform="translate(-181 -348.04)"/></svg>