<?xml version="1.0" encoding="UTF-8"?><svg id="Layer_2" xmlns="http://www.w3.org/2000/svg" viewBox="0 0 733.61 159.98"><defs><style>.cls-1{fill:#0b0b0b;stroke-width:0px;}</style></defs><g id="Layer_1-2"><path class="cls-1" d="M109.15,37.27h-.16c-.62,0-2.18-.16-2.18-2.18s.31-3.59,1.72-4.37c4.99-3.12,11.23-5.46,11.23-10.6,0-6.08-8.73-7.48-27.6-7.48-8.26,0-69.54,4.99-69.54,25.73s102.13,15.91,102.13,45.84c0,12.79-14.66,27.29-62.68,27.29-17.15,0-41.79-6.39-45.53-9.82-.78-.62-1.4-2.81-1.4-4.68,0-1.56.47-2.96,1.87-2.96s24.95,7.33,40.39,7.33c24.95,0,43.5-2.5,43.5-15.44C100.89,65.8,0,70.79,0,42.88,0,11.69,75,0,102.45,0c11.38,0,31.97.47,31.97,17.62,0,9.51-14.81,19.18-25.26,19.65Z"/><path class="cls-1" d="M339.13,77.03c-.62,0-.78.31-1.25,1.25-5.77,10.6-11.85,17.62-24.17,17.62-5.77,0-10.76-2.81-12.16-8.74,3.28,1.1,6.55,1.72,9.82,1.72,9.67,0,18.25-4.99,18.25-14.19s-8.11-14.34-18.25-14.34c-13.72,0-24.94,10.29-24.94,22.92,0,2.54.57,5.47,1.83,8.36-2.37,2.73-4.93,5.17-7.6,7.39v-8.11c0-15.28-.31-27.91-.62-28.54-.78-1.56-3.12-2.02-6.55-2.02s-4.68.62-5.62,2.02c-.15.31-.31.94-.46,1.87-3.75-2.49-8.27-3.89-13.26-3.89-13.72,0-24.95,10.29-24.95,22.92,0,2.48.43,4.87,1.24,7.11-2.81,3.58-5.61,5.99-7.94,5.99-3.27,0-4.05-5.93-4.05-12.95,0-4.83.46-12.94.46-17.46,0-1.87-.15-3.28-.31-3.59-.78-1.56-3.12-2.02-6.55-2.02s-4.36.62-5.3,2.02c-.15.31-.31.94-.47,2.03-3.89-2.5-8.57-4.05-13.56-4.05-13.72,0-24.95,10.29-24.95,22.92,0,2.27.37,4.48,1.05,6.55-2.97,3.88-5.93,6.55-8.38,6.55-2.65,0-3.43-4.53-3.43-10.3v-5.61c0-11.38.94-25.26,1.25-37.27,7.79.31,15.75.47,21.98.47,3.28,0,13.57-.31,14.35-.62.47-.47,1.87-2.65,1.87-4.68,0-1.4-1.4-5.3-2.18-6.08-1.56-.78-18.25-1.56-24.02-1.56-4.21,0-8.1,0-11.85.15v-1.71c0-11.54-.31-18.87-.78-19.96-.31-.78-2.8-2.65-5.3-2.65-1.56,0-5.92,2.03-6.86,3.12-.62,1.4-1.4,11.07-1.71,21.83-11.54.78-18.25,1.71-18.4,1.71-1.25.47-1.25,4.06-1.25,4.06,0,0,0,3.58,1.4,4.05.16.16,7.96.78,18.09,1.25v.16c0,14.18.47,26.19.94,35.7,0,1.09.31,27.76,13.09,27.76,6.55,0,11.58-4.5,15.12-9.22,4.56,5.59,11.82,9.22,19.97,9.22,6.24,0,12.01-2.5,16.37-6.24,2.18,4.06,5.61,6.24,10.45,6.24,6.45,0,11.43-4.26,14.97-8.84,4.55,5.37,11.68,8.84,19.64,8.84,4.99,0,9.51-1.56,13.26-3.9l.15,5.93c-13.88,8.88-26.51,15.74-26.51,31.34,0,11.69,7.33,20.42,17.94,20.42,7.48,0,18.71-5.61,20.27-24.01.62-6.7,1.09-16.37,1.24-26.35,4.12-3.27,8.17-7.05,11.88-11.67,4.29,4.69,11.15,8.24,21.33,8.24,14.82,0,23.39-12.79,26.36-18.71.78-1.25.93-3.12.93-4.84,0-2.8-.78-5.61-1.87-5.61ZM205.51,83.27c0,7.01-3.9,12.63-12.79,12.63-5.61,0-10.29-5.77-10.29-12.63s4.68-12.63,10.29-12.63c8.57,0,12.47,5.3,12.79,11.85v.78ZM254.15,95.9c-5.61,0-10.29-5.77-10.29-12.63s4.68-12.63,10.29-12.63c8.89,0,12.79,5.61,12.79,12.63s-3.9,12.63-12.79,12.63ZM259.3,148.13c-6.4,0-7.8-6.08-7.8-8.57,0-9.51,7.17-14.82,16.37-21.05.16,4.05.32,7.79.32,10.76,0,11.85-3.28,18.86-8.89,18.86ZM311.37,70.64c3.43,0,6.71,1.4,6.71,5.61,0,4.52-6.71,6.08-12.01,6.08-2.02,0-3.9-.15-4.99-.62.63-6.24,5.15-11.07,10.29-11.07Z"/><path class="cls-1" d="M436.43,37.27h-.16c-.62,0-2.18-.16-2.18-2.18s.31-3.59,1.72-4.37c4.99-3.12,11.23-5.46,11.23-10.6,0-6.08-8.73-7.48-27.6-7.48-8.26,0-69.54,4.99-69.54,25.73s102.13,15.91,102.13,45.84c0,12.79-14.66,27.29-62.68,27.29-17.15,0-41.79-6.39-45.53-9.82-.78-.62-1.4-2.81-1.4-4.68,0-1.56.47-2.96,1.87-2.96s24.95,7.33,40.39,7.33c24.95,0,43.5-2.5,43.5-15.44,0-20.11-100.89-15.12-100.89-43.04,0-31.19,75-42.88,102.45-42.88,11.38,0,31.97.47,31.97,17.62,0,9.51-14.81,19.18-25.26,19.65Z"/><path class="cls-1" d="M731.74,77.03c-.63,0-.78.31-1.25,1.25-3.9,7.33-7.95,12.94-14.19,15.59,1.25-1.56,2.96-4.37,2.96-8.26,0-14.19-16.06-19.18-16.06-30.1,0-1.71-1.56-1.87-4.83-1.87h-.16c-3.74,0-8.57,2.81-8.57,4.52,0,.63.15,1.56.15,2.96,0,2.03-.31,4.99-1.87,9.98-.64,2.08-1.47,4.1-2.35,5.99-.3.13-.57.49-.92,1.19-4.83,9.04-11.07,18.09-15.59,18.09-2.66,0-3.44-4.53-3.44-10.3v-5.61c0-11.38.94-25.26,1.25-37.27,7.8.31,15.75.47,21.99.47,3.27,0,13.56-.31,14.34-.62.47-.47,1.87-2.65,1.87-4.68,0-1.4-1.4-5.3-2.18-6.08-1.56-.78-18.24-1.56-24.01-1.56-4.21,0-8.11,0-11.85.15v-1.71c0-11.54-.31-18.87-.78-19.96-.31-.78-2.81-2.65-5.3-2.65-1.56,0-5.93,2.03-6.86,3.12-.63,1.4-1.41,11.07-1.72,21.83-11.54.78-18.24,1.71-18.4,1.71-1.25.47-1.25,4.06-1.25,4.06,0,0,0,3.58,1.41,4.05.15.16,7.95.78,18.09,1.25v.16c0,14.18.46,26.19.93,35.7,0,.36.03,3.46.53,7.47-3.83,5.89-7.92,10.47-11.13,10.47-1.09,0-1.56-.94-1.56-2.03,0-3.9,7.17-16.84,7.17-21.68s-3.27-7.64-9.51-7.64c-3.89,0-12.47-.46-14.97-2.18,0-6.08-2.33-10.45-7.32-10.45-3.9,0-5.93,4.99-5.93,7.96,0,7.48,4.37,9.97,5.3,10.75-1.99,6.46-5.76,12.38-7.49,15.38-.02.03-.04.06-.06.09-3.7,5.57-7.6,9.8-10.69,9.8-3.27,0-4.05-5.93-4.05-12.95,0-4.83.47-12.94.47-17.46,0-1.87-.16-3.28-.32-3.59-.78-1.56-3.11-2.02-6.54-2.02s-4.37.62-5.31,2.02c-.15.31-.31.94-.46,2.03-3.9-2.5-8.58-4.05-13.57-4.05-13.72,0-24.95,10.29-24.95,22.92,0,2.99.63,5.85,1.78,8.47-2.44,2.82-4.81,4.63-6.76,4.63-9.05,0,2.18-36.02-14.04-36.02,0,0-14.81,0-22.14,27.28.16-2.18.31-4.05.31-5.92,0-21.36-10.91-21.36-10.91-21.36-9.98,0-17.16,12.31-21.21,22.14.16-4.21.47-8.42.47-11.85,0-2.19-.47-8.58-.78-9.2-.47-.32-2.65-1.09-5.15-1.09h-.31c-1.56,0-5.93.77-6.86,1.4-.78.93-1.72,11.54-1.72,15.12,0,17.31,2.81,28.38,2.97,28.54.46.78,4.52.78,4.52.78,0,0,4.21,0,4.68-.78l.15-.16c.78-2.65,10.14-30.87,17.62-30.87s-2.34,31.5,13.88,31.5c1.4,0,13.1-31.5,17.93-31.5,7.64,0-4.21,31.81,17.62,31.81,5.93,0,10.62-3.69,14.1-7.89,4.57,4.83,11.32,7.89,18.8,7.89,6.24,0,12.01-2.5,16.37-6.24,2.19,4.06,5.62,6.24,10.45,6.24,11.85,0,18.71-14.35,20.89-18.71.02-.05.05-.1.06-.15.01-.02.02-.04.03-.06,2.67-4.85,5.16-10.74,5.84-13.2,1.24.62,6.86,1.71,10.44,1.87.94,0,1.72.47,1.72,1.25,0,.31-.16.62-.31,1.09-1.88,4.21-5.46,11.69-5.46,16.37,0,6.08,4.05,11.54,12,11.54,7.13,0,12.46-5.33,16.02-10.47,1.86,5.64,5.04,10.47,10.49,10.47,8.56,0,14.52-7.69,17.96-13.52.01-.02.02-.03.03-.03,3.64-4.46,8.32-15.04,9.29-18.57.63-2.19,1.25-4.06,1.25-4.06,4.21,7.64,11.85,9.98,11.85,17.62,0,4.52-3.43,8.42-8.11,8.42-4.21,0-7.17-3.27-8.42-3.27-.62,0-.78,1.4-.78,3.12,0,1.87.32,4.05.78,4.83.63.78,3.43,5.46,16.22,5.46,14.81,0,23.39-12.79,26.35-18.71.78-1.25.94-3.12.94-4.84,0-2.8-.78-5.61-1.87-5.61ZM580.5,83.27c0,7.01-3.9,12.63-12.79,12.63-5.61,0-10.29-5.77-10.29-12.63s4.68-12.63,10.29-12.63c8.58,0,12.47,5.3,12.79,11.85v.78Z"/></g></svg>