<?xml version='1.0' encoding='utf-8'?>
<svg xmlns="http://www.w3.org/2000/svg" version="1.1" id="Layer_1" x="0px" y="0px" viewBox="0 0 500 500" style="enable-background:new 0 0 500 500;" xml:space="preserve">
<g>
</g>
<g>
<path style="fill-rule:evenodd;clip-rule:evenodd;fill:#FFFFFF;" d="M87.071,296.31c-8.435,8.395-23.793,9.796-32.27,1.362   c-8.436-8.479-6.998-23.757,1.36-32.27l29.509-29.549l5.678,5.598L61.799,271c-4.625,4.625-5.324,14.266,0,19.673   c5.444,5.403,15.048,4.626,19.674,0l29.549-29.549l5.598,5.674L87.071,296.31L87.071,296.31z" />
	<path style="fill-rule:evenodd;clip-rule:evenodd;fill:#FFFFFF;" d="M149.009,234.372c8.475-8.514,9.875-23.832,1.361-32.271   c-8.438-8.435-23.757-7.038-32.271,1.362l-29.549,29.472l5.637,5.638l29.549-29.513c4.587-4.586,14.227-5.364,19.67,0   c5.368,5.443,4.59,15.088,0,19.675l-29.509,29.549l5.637,5.637L149.009,234.372L149.009,234.372z" />
	<path style="fill-rule:evenodd;clip-rule:evenodd;fill:#FFFFFF;" d="M149.009,265.401c8.475,8.514,9.875,23.792,1.361,32.27   c-8.438,8.435-23.757,7.034-32.271-1.362l-29.549-29.512l5.637-5.674l29.549,29.549c4.587,4.626,14.227,5.403,19.67,0   c5.368-5.408,4.59-15.048,0-19.673l-29.509-29.549l5.637-5.598L149.009,265.401L149.009,265.401z" />
	<path style="fill-rule:evenodd;clip-rule:evenodd;fill:#FFFFFF;" d="M87.071,203.464c-8.435-8.4-23.793-9.797-32.27-1.362   c-8.436,8.438-6.998,23.757,1.36,32.271l29.509,29.549l5.678-5.637l-29.549-29.549c-4.625-4.587-5.324-14.232,0-19.675   c5.444-5.364,15.048-4.586,19.674,0l29.549,29.513l5.598-5.638L87.071,203.464L87.071,203.464z" />
	<path style="fill-rule:evenodd;clip-rule:evenodd;fill:#FFFFFF;" d="M357.637,255.756h11.041v42.031h-11.041V255.756   L357.637,255.756z M221.132,217.46v-12.712h44.477c0,0,14.501,0.619,14.501,12.013c0,0.234,0,0.464,0,0.699   c-0.194,8.05-3.848,9.292-9.525,11.938l11.704,15.552v-27.49v-12.985h54.122v7.661l-43.315,0.075l0.039,5.249l0.04,3.305h42.882   v7.7h-42.882l0.038,9.097h43.157v7.814h-65.786l-12.168-15.163h-26.09v15.513h-11.195V217.46L221.132,217.46z M270.275,217.46   c-0.078-5.482-6.494-5.015-7.387-5.094h-30.575v5.094v5.093h30.77c1.944,0,7.192,0.544,7.192-5.014   C270.275,217.499,270.275,217.499,270.275,217.46L270.275,217.46z M390.14,232.583c0-2.603-1.825-5.014-6.105-5.014h-33.667   c-7.037,0-12.247-5.016-12.247-11.352c0-6.299,4.197-11.627,12.596-11.627h100.271v8.165H427.35v32.659h-11.275v-32.735h-63.219   c-1.67,0-3.693,1.904-3.733,3.538c-0.08,1.67,1.709,3.925,4.237,3.925h32.815c10.147-0.195,14.31,6.961,14.349,12.675   c0.076,5.757-6.181,12.597-13.802,12.597h-48.834l0.078-7.851h46.732C388.705,237.563,390.14,235.19,390.14,232.583L390.14,232.583   z M159.467,225.39c0.31-10.887,9.213-20.098,20.063-20.761h39.498v8.244l-37.983,0.04c-7.971,0.659-11.041,8.748-11.041,13.14   c0,4.356,3.341,11.549,11.47,12.207h37.09v7.701h-38.529C168.644,245.961,159.233,236.201,159.467,225.39L159.467,225.39z    M180.148,273.293l13.767-17.068h8.28l14.191,17.068l19.75,23.716h-12.945l-7.582-9.057l-34.683,0.075l-6.919,9.098h-13.064   L180.148,273.293L180.148,273.293z M203.362,273.293l-5.404-6.531l-5.444,6.531l-5.443,6.53h21.734L203.362,273.293   L203.362,273.293z M292.671,273.293l-0.04-17.107h40.475c10.573,0,20.916,7.308,22.392,17.107c0.119,0.738,0.195,1.476,0.195,2.253   c0.158,11.082-9.173,22.126-21.344,22.126h-41.602L292.671,273.293L292.671,273.293z M345.468,273.293   c-1.595-6.65-7.816-10.188-13.413-10.188h-28.304v10.188v16.874h28.927c8.165,0,13.528-6.103,13.139-14.386   C345.778,274.926,345.663,274.07,345.468,273.293L345.468,273.293z M371.403,273.293c1.75-12.791,13.529-16.834,20.607-16.834   h26.438c8.748,0,19.246,7.269,21.031,16.834c0.119,0.662,0.194,1.321,0.235,1.983c0.543,10.458-8.086,22.396-19.904,22.396h-27.605   c-8.633,0-21.269-6.145-21.035-21.269C371.169,275.315,371.244,274.263,371.403,273.293L371.403,273.293z M429.644,273.293   c-1.635-5.598-6.96-9.915-12.557-9.915h-25.118c-5.328,0-9.838,4.939-11.313,9.915c-0.31,1.051-0.468,2.099-0.505,3.111   c-0.079,5.716,4.895,13.453,12.053,13.453h26.009c6.181,0,11.973-5.717,11.973-12.949   C430.187,275.665,429.993,274.458,429.644,273.293L429.644,273.293z M290.219,285.734c0,5.483-7.581,11.509-13.608,11.509h-31.726   c-7.582,0-13.644-6.959-13.644-10.926v-30.132h9.95v28.227c0,3.146,2.139,5.444,6.106,5.444h28.732c0,0,4.355-1.944,4.355-4.9   v-28.771h9.835V285.734L290.219,285.734z" />
</g>
</svg>