<svg id="Layer_1" data-name="Layer 1" xmlns="http://www.w3.org/2000/svg" viewBox="0 0 141.73 141.73"><defs><style>.cls-1{fill:#cedc00;}.cls-2{fill:#222221;}.cls-3,.cls-4{fill:none;stroke:#222221;}.cls-3{stroke-width:0.01px;}.cls-4{stroke-width:0.15px;}</style></defs><title>DPA-Logo-Lime-screen</title><rect class="cls-2" x="112.75" y="51.54" width="0.95" height="4.91"/><rect class="cls-3" x="112.75" y="51.54" width="0.95" height="4.91"/><polygon class="cls-2" points="115.33 51.76 116.3 51.96 114.67 60.05 113.69 59.85 115.33 51.76"/><polygon class="cls-3" points="115.33 51.76 116.3 51.96 114.67 60.05 113.69 59.85 115.33 51.76"/><rect class="cls-2" x="341.61" y="498.8" width="4.91" height="0.95" transform="translate(-474.14 187.83) rotate(-68.1)"/><rect class="cls-3" x="341.61" y="498.8" width="4.91" height="0.95" transform="translate(-474.14 187.83) rotate(-68.1)"/><polygon class="cls-2" points="120.23 53.59 121.05 54.14 116.52 61.03 115.67 60.48 120.23 53.59"/><polygon class="cls-3" points="120.23 53.59 121.05 54.14 116.52 61.03 115.67 60.48 120.23 53.59"/><rect class="cls-2" x="345.2" y="501.3" width="4.91" height="0.95" transform="translate(-481.36 -41.43) rotate(-45.97)"/><rect class="cls-3" x="345.2" y="501.3" width="4.91" height="0.95" transform="translate(-481.36 -41.43) rotate(-45.97)"/><polygon class="cls-2" points="124.1 57.16 124.66 57.98 117.87 62.67 117.3 61.84 124.1 57.16"/><polygon class="cls-3" points="124.1 57.16 124.66 57.98 117.87 62.67 117.3 61.84 124.1 57.16"/><rect class="cls-2" x="347.47" y="504.85" width="4.9" height="0.95" transform="translate(-402.01 -258.24) rotate(-24.02)"/><rect class="cls-3" x="347.47" y="504.85" width="4.9" height="0.95" transform="translate(-402.01 -258.24) rotate(-24.02)"/><polygon class="cls-2" points="126.22 61.88 126.43 62.84 118.38 64.65 118.16 63.67 126.22 61.88"/><polygon class="cls-3" points="126.22 61.88 126.43 62.84 118.38 64.65 118.16 63.67 126.22 61.88"/><rect class="cls-2" x="348.26" y="509.05" width="4.91" height="0.95" transform="translate(-243.88 -432.1) rotate(-1.97)"/><rect class="cls-3" x="348.26" y="509.05" width="4.91" height="0.95" transform="translate(-243.85 -432.13) rotate(-1.96)"/><polygon class="cls-2" points="126.42 67.1 126.26 68.07 118.12 66.73 118.28 65.74 126.42 67.1"/><polygon class="cls-3" points="126.42 67.1 126.26 68.07 118.12 66.73 118.28 65.74 126.42 67.1"/><rect class="cls-2" x="349.39" y="511.16" width="0.95" height="4.9" transform="translate(-479.17 221.78) rotate(-69.95)"/><rect class="cls-3" x="349.39" y="511.16" width="0.95" height="4.9" transform="translate(-479.17 221.78) rotate(-69.95)"/><polygon class="cls-2" points="124.66 71.9 124.14 72.75 117.1 68.46 117.62 67.59 124.66 71.9"/><polygon class="cls-3" points="124.66 71.9 124.14 72.75 117.1 68.46 117.62 67.59 124.66 71.9"/><rect class="cls-2" x="346.91" y="514.71" width="0.95" height="4.91" transform="translate(-496.18 -13.89) rotate(-48.12)"/><rect class="cls-3" x="346.91" y="514.71" width="0.95" height="4.91" transform="translate(-496.18 -13.89) rotate(-48.12)"/><polygon class="cls-2" points="121.05 75.78 120.25 76.37 115.33 69.75 116.14 69.15 121.05 75.78"/><polygon class="cls-3" points="121.05 75.78 120.25 76.37 115.33 69.75 116.14 69.15 121.05 75.78"/><rect class="cls-2" x="339.32" y="517.94" width="0.95" height="4.9" transform="translate(-235.37 -438.61) rotate(-0.97)"/><rect class="cls-3" x="339.32" y="517.94" width="0.95" height="4.91" transform="translate(-235.5 -438.52) rotate(-0.98)"/><polygon class="cls-2" points="111.14 78.25 110.17 78.07 111.65 69.95 112.64 70.14 111.14 78.25"/><polygon class="cls-3" points="111.14 78.25 110.17 78.07 111.65 69.95 112.64 70.14 111.14 78.25"/><rect class="cls-2" x="333.13" y="519.05" width="4.91" height="0.95" transform="translate(-497.5 196.42) rotate(-68.45)"/><rect class="cls-3" x="333.13" y="519.05" width="4.91" height="0.95" transform="translate(-497.5 196.42) rotate(-68.45)"/><polygon class="cls-2" points="106.21 76.43 105.38 75.89 109.85 68.96 110.7 69.5 106.21 76.43"/><polygon class="cls-3" points="106.21 76.43 105.38 75.89 109.85 68.96 110.7 69.5 106.21 76.43"/><rect class="cls-2" x="329.64" y="516.7" width="4.91" height="0.95" transform="translate(-497.33 -47.16) rotate(-46.05)"/><rect class="cls-3" x="329.64" y="516.7" width="4.91" height="0.95" transform="translate(-497.33 -47.16) rotate(-46.05)"/><polygon class="cls-2" points="102.41 72.92 101.85 72.1 108.64 67.41 109.21 68.24 102.41 72.92"/><polygon class="cls-3" points="102.41 72.92 101.85 72.1 108.64 67.41 109.21 68.24 102.41 72.92"/><rect class="cls-2" x="327.3" y="513.19" width="4.9" height="0.95" transform="translate(-403.73 -270.87) rotate(-23.44)"/><rect class="cls-3" x="327.3" y="513.19" width="4.9" height="0.95" transform="translate(-403.73 -270.87) rotate(-23.44)"/><polygon class="cls-2" points="100.24 68.22 100.03 67.25 108.1 65.51 108.31 66.5 100.24 68.22"/><polygon class="cls-3" points="100.24 68.22 100.03 67.25 108.1 65.51 108.31 66.5 100.24 68.22"/><rect class="cls-2" x="326.46" y="508.94" width="4.9" height="0.95" transform="translate(-235.25 -438.75) rotate(-0.98)"/><rect class="cls-3" x="326.46" y="508.94" width="4.91" height="0.95" transform="translate(-235.24 -438.76) rotate(-0.98)"/><polygon class="cls-2" points="100.01 62.94 100.19 61.97 108.31 63.45 108.12 64.44 100.01 62.94"/><polygon class="cls-3" points="100.01 62.94 100.19 61.97 108.31 63.45 108.12 64.44 100.01 62.94"/><rect class="cls-2" x="329.16" y="502.9" width="0.95" height="4.91" transform="translate(-487.87 182.89) rotate(-68.55)"/><rect class="cls-3" x="329.16" y="502.9" width="0.95" height="4.91" transform="translate(-487.87 182.89) rotate(-68.55)"/><polygon class="cls-2" points="101.69 58.15 102.23 57.32 109.16 61.8 108.61 62.64 101.69 58.15"/><polygon class="cls-3" points="101.69 58.15 102.23 57.32 109.16 61.8 108.61 62.64 101.69 58.15"/><rect class="cls-2" x="331.61" y="499.26" width="0.95" height="4.9" transform="translate(-486.06 -52.68) rotate(-45.97)"/><rect class="cls-3" x="331.61" y="499.26" width="0.95" height="4.9" transform="translate(-486.06 -52.68) rotate(-45.97)"/><polygon class="cls-2" points="105.3 54.22 106.11 53.66 110.8 60.45 109.97 61.02 105.3 54.22"/><polygon class="cls-3" points="105.3 54.22 106.11 53.66 110.8 60.45 109.97 61.02 105.3 54.22"/><rect class="cls-2" x="335.15" y="496.91" width="0.95" height="4.91" transform="translate(-398.06 -268.93) rotate(-23.53)"/><rect class="cls-3" x="335.15" y="496.91" width="0.95" height="4.91" transform="translate(-398.06 -268.93) rotate(-23.53)"/><polygon class="cls-2" points="110.02 52.03 110.99 51.82 112.73 59.89 111.74 60.1 110.02 52.03"/><polygon class="cls-3" points="110.02 52.03 110.99 51.82 112.73 59.89 111.74 60.1 110.02 52.03"/><rect class="cls-2" x="343.57" y="517.08" width="0.95" height="4.91" transform="translate(-408.83 -258.57) rotate(-24.11)"/><rect class="cls-3" x="343.57" y="517.08" width="0.95" height="4.91" transform="translate(-408.83 -258.57) rotate(-24.11)"/><polygon class="cls-2" points="116.45 78 115.48 78.22 113.67 70.17 114.66 69.95 116.45 78"/><polygon class="cls-3" points="116.45 78 115.48 78.22 113.67 70.17 114.66 69.95 116.45 78"/><path class="cls-2" d="M339.78,510.8a1.46,1.46,0,1,0-1.46-1.46,1.46,1.46,0,0,0,1.46,1.46" transform="translate(-226.61 -444.43)"/><circle class="cls-4" cx="113.16" cy="64.91" r="1.46"/><path class="cls-2" d="M246.59,498.11v24.11h10.64c5.28,0,17.58-1.35,17.58-13.87,0-6.79-4.41-10.24-13.12-10.24Zm8.84,19.77V502h3.47c3.93,0,6.1,3,6.1,8.55,0,6.5-4.17,7.86-7.67,7.86h-1.9Z" transform="translate(-226.61 -444.43)"/><path class="cls-2" d="M278.84,498.11v24.11h8.84V513H290c9.1,0,12.5-5.53,12.5-9,0-4.88-4.27-5.91-7.85-5.91Zm8.84,10.58V502h1.59c2.84,0,4.29,1.06,4.29,3.16,0,2.64-2.55,4.07-4.95,4.07h-.93Z" transform="translate(-226.61 -444.43)"/><path class="cls-2" d="M308.73,498.11l-9.58,24.11h4.7l1.82-5.05h9.5l1.92,5.05h9.47l-9.79-24.11Zm-1.3,14.9,3-8.32,3.17,9H307.2Z" transform="translate(-226.61 -444.43)"/><polygon class="cls-2" points="22.8 87 22.03 87 20.97 83.57 19.9 87 19.3 87 20.71 82.3 21.49 82.3 22.59 85.84 23.63 82.3 24.44 82.3 25.86 87 24.93 87 23.9 83.55 22.8 87"/><rect class="cls-2" x="31.76" y="82.3" width="0.95" height="4.71"/><path class="cls-2" d="M268.43,527.13c-1.27,0-2,.64-2,1.74a2.14,2.14,0,0,0,2.26,2.17,2.29,2.29,0,0,0,.94-.19v.6a5.46,5.46,0,0,1-1.1.12c-1.74,0-3.15-.94-3.15-2.68,0-1.28,1-2.28,2.95-2.28a9.11,9.11,0,0,1,1.3.09v.65a3.39,3.39,0,0,0-1.23-.21" transform="translate(-226.61 -444.43)"/><path class="cls-2" d="M276.66,531.43h-.95v-4.71h2c1.31,0,1.55.62,1.55,1.1,0,1-1,1.29-1.26,1.33l1.6,2.28h-1.12L277,529.28h-.32Zm1.58-3.46c0-.63-.59-.73-1-.73h-.61v1.54h.47c.53,0,1.11-.27,1.11-.81" transform="translate(-226.61 -444.43)"/><path class="cls-2" d="M290.52,528.89a2.75,2.75,0,0,1-5.49,0c0-1.56,1.36-2.29,2.77-2.29s2.73.74,2.73,2.29M287.77,531c1.16,0,1.7-1.25,1.7-2.15a1.7,1.7,0,1,0-3.41,0c0,.95.52,2.14,1.71,2.14" transform="translate(-226.61 -444.43)"/><path class="cls-2" d="M297.55,529.51v1.93h-.95v-4.7h1.94c1,0,1.57.49,1.57,1.22,0,.88-.84,1.56-2.13,1.56Zm1.56-1.42c0-.76-.47-.85-1-.85h-.57V529h.2c.49,0,1.37-.13,1.37-.9" transform="translate(-226.61 -444.43)"/><polygon class="cls-2" points="82.96 84.83 80.44 84.83 80.44 87 79.5 87 79.5 82.3 80.44 82.3 80.44 84.3 82.96 84.3 82.96 82.3 83.9 82.3 83.9 87 82.96 87 82.96 84.83"/><path class="cls-2" d="M322.1,528.89a2.75,2.75,0,0,1-5.49,0c0-1.56,1.36-2.29,2.77-2.29s2.73.74,2.73,2.29M319.35,531c1.17,0,1.7-1.25,1.7-2.15a1.7,1.7,0,1,0-3.41,0c0,.95.52,2.14,1.71,2.14" transform="translate(-226.61 -444.43)"/><polygon class="cls-2" points="105.05 85.68 105.05 82.3 105.65 82.3 105.65 87 104.95 87 102.14 83.55 102.14 87 101.54 87 101.54 82.3 102.34 82.3 105.05 85.68"/><polygon class="cls-2" points="115.41 87 112.03 87 112.03 82.3 115.39 82.3 115.39 82.81 112.98 82.81 112.98 84.32 115.41 84.32 115.41 84.84 112.98 84.84 112.98 86.49 115.41 86.49 115.41 87"/><path class="cls-2" d="M349.83,526.61a5.72,5.72,0,0,1,1.22.15v.62c-.69-.31-2.16-.51-2.16.52,0,.51.58.65,1,.74s1.44.16,1.44,1.28a1.75,1.75,0,0,1-2,1.65,6.44,6.44,0,0,1-1.46-.18v-.69a3.56,3.56,0,0,0,1.4.35,1,1,0,0,0,1.06-.92c0-.8-1.12-.49-1.87-.9a1.22,1.22,0,0,1-.65-1.17c0-.74.57-1.45,2-1.45" transform="translate(-226.61 -444.43)"/></svg>