<?xml version="1.0" encoding="UTF-8"?>
<svg id="Laag_1" data-name="Laag 1" xmlns="http://www.w3.org/2000/svg" viewBox="0 0 221.16 56.69">
  <defs>
    <style>
      .cls-1, .cls-2 {
        fill: #fff;
      }

      .cls-2 {
        fill-rule: evenodd;
      }
    </style>
  </defs>
  <polygon class="cls-2" points="0 12.51 97.41 0 19.36 56.69 22.3 28.08 0 12.51"/>
  <g>
    <path class="cls-1" d="M73.11,37.01h9.53v11.9c-2.59.89-5.43,1.33-8.53,1.33-3.4,0-6.03-.99-7.89-2.96s-2.79-4.79-2.79-8.44,1.02-6.34,3.05-8.32c2.03-1.98,4.88-2.97,8.55-2.97,1.39,0,2.7.13,3.93.39s2.31.59,3.22,1l-1.89,4.68c-1.59-.79-3.34-1.18-5.24-1.18-1.74,0-3.09.57-4.04,1.7-.95,1.13-1.43,2.75-1.43,4.85s.43,3.64,1.29,4.72c.86,1.08,2.1,1.62,3.72,1.62.89,0,1.7-.09,2.45-.26v-3.46h-3.94v-4.61Z"/>
    <path class="cls-1" d="M93.1,41.9v8.03h-5.96v-22.07h7.23c6,0,9,2.17,9,6.52,0,2.56-1.25,4.54-3.74,5.93l6.43,9.62h-6.76l-4.68-8.03h-1.51ZM93.1,37.42h1.12c2.08,0,3.12-.92,3.12-2.76,0-1.52-1.02-2.28-3.06-2.28h-1.18v5.04Z"/>
    <path class="cls-1" d="M121.17,49.93h-13.1v-22.07h13.1v4.79h-7.14v3.47h6.61v4.79h-6.61v4.17h7.14v4.86Z"/>
    <path class="cls-1" d="M138.14,49.93h-13.1v-22.07h13.1v4.79h-7.14v3.47h6.61v4.79h-6.61v4.17h7.14v4.86Z"/>
    <path class="cls-1" d="M163.02,49.93h-7.82l-8.06-15.55h-.14c.19,2.45.29,4.31.29,5.6v9.95h-5.28v-22.07h7.79l8.03,15.34h.09c-.14-2.22-.21-4.01-.21-5.36v-9.98h5.31v22.07Z"/>
    <path class="cls-1" d="M166.05,44v-4.71h8.53v4.71h-8.53Z"/>
    <path class="cls-1" d="M186.48,37.01h9.53v11.9c-2.59.89-5.43,1.33-8.53,1.33-3.4,0-6.03-.99-7.89-2.96-1.86-1.97-2.79-4.79-2.79-8.44s1.02-6.34,3.05-8.32c2.03-1.98,4.88-2.97,8.54-2.97,1.39,0,2.7.13,3.93.39,1.23.26,2.31.59,3.22,1l-1.89,4.68c-1.59-.79-3.34-1.18-5.24-1.18-1.74,0-3.09.57-4.04,1.7-.95,1.13-1.43,2.75-1.43,4.85s.43,3.64,1.29,4.72,2.1,1.62,3.72,1.62c.89,0,1.7-.09,2.45-.26v-3.46h-3.94v-4.61Z"/>
    <path class="cls-1" d="M221.16,38.87c0,3.71-.91,6.54-2.73,8.47-1.82,1.93-4.49,2.9-8,2.9s-6.12-.97-7.96-2.91c-1.85-1.94-2.77-4.77-2.77-8.48s.92-6.48,2.75-8.42c1.84-1.94,4.51-2.91,8.01-2.91s6.17.96,7.99,2.88c1.81,1.92,2.72,4.75,2.72,8.47ZM205.97,38.87c0,4.27,1.48,6.4,4.45,6.4,1.51,0,2.63-.52,3.36-1.55.73-1.04,1.09-2.65,1.09-4.85s-.37-3.83-1.11-4.88c-.74-1.05-1.84-1.58-3.31-1.58-2.99,0-4.48,2.15-4.48,6.46Z"/>
  </g>
</svg>