<svg fill="none" height="25" viewBox="0 0 186 25" width="186" xmlns="http://www.w3.org/2000/svg"> <path d="M84.2812 -9.12075e-05L79.2871 4.98828L84.2812 9.97665L89.2753 4.98828L84.2812 -9.12075e-05Z" fill="#D82318"></path> <path class="path" clip-rule="evenodd" d="M0 19.9379C0 22.494 2.04718 24.5388 4.60615 24.5388H9.7241V4.39716V4.29492H0V19.9379Z" fill="#1C1C21" fill-rule="evenodd"></path> <path class="path" clip-rule="evenodd" d="M40.02 19.0164L25.0756 4.49805C22.0048 4.49805 18.934 4.49805 15.8633 4.49805V24.6397H20.3671V10.7348L35.1068 24.6397H44.2167H44.5238V4.49805H40.02V19.0164Z" fill="#1C1C21" fill-rule="evenodd"></path> <path class="path" clip-rule="evenodd" d="M57.1119 4.39844H50.7656V20.0414C50.7656 22.5975 52.8128 24.6423 55.3718 24.6423H60.4897V16.1563H75.5365V12.8845H60.4897V7.77242V7.67018H76.8671V4.39844H60.3874H57.1119Z" fill="#1C1C21" fill-rule="evenodd"></path> <path class="path" d="M87.9284 10.6348H80.5586V24.6419H87.9284V10.6348Z" fill="#1C1C21"></path> <path class="path" clip-rule="evenodd" d="M103.075 19.4254V4.49805H92.9414V19.0164C92.9414 22.0837 95.5004 24.6397 98.5711 24.6397H120.578V21.1635H104.815C103.791 21.1635 103.075 20.3455 103.075 19.4254Z" fill="#1C1C21" fill-rule="evenodd"></path> <path class="path" clip-rule="evenodd" d="M123.447 19.2234C123.447 22.2907 126.006 24.8467 129.077 24.8467H151.084V21.3705H135.321C134.297 21.3705 133.581 20.5526 133.581 19.6324V15.9517H149.856V12.4755H133.581V8.1813H151.596V4.70508C142.179 4.70508 132.864 4.70508 123.447 4.70508V19.2234Z" fill="#1C1C21" fill-rule="evenodd"></path> <path class="path" clip-rule="evenodd" d="M172.271 4.39844C167.869 4.39844 156.303 4.39844 156.303 4.39844C156.303 4.39844 156.303 16.9742 156.303 19.6325C156.303 22.1885 157.94 24.5401 163.366 24.5401C168.791 24.5401 171.247 24.5401 174.932 24.5401C178.617 24.5401 186.396 23.0065 185.987 13.8047C185.577 4.70516 176.672 4.39844 172.271 4.39844ZM176.058 21.6773H169.2C166.641 21.6773 165.72 20.8594 165.72 18.4056V7.56794L173.908 7.46569C178.208 7.46569 181.688 9.61277 181.688 14.8271C181.688 20.0414 177.696 21.6773 176.058 21.6773Z" fill="#1C1C21" fill-rule="evenodd"></path> </svg>