<?xml version="1.0" encoding="UTF-8" standalone="no"?>
<svg xmlns="http://www.w3.org/2000/svg" width="532" height="539" viewBox="0 0 532 539" version="1.1">
  <title>Martin Audio London logo</title>
  <path d="M 375 458 L 375 460 L 374 461 L 375 462 L 375 486 L 374 487 L 375 489 L 380 489 L 380 468 L 381 467 L 384 470 L 394 485 L 395 488 L 396 489 L 401 489 L 401 458 L 396 458 L 396 476 L 395 477 L 392 474 L 384 462 L 383 459 L 381 458 Z M 330 459 L 325 464 L 323 469 L 323 477 L 324 478 L 324 481 L 330 488 L 332 488 L 333 489 L 342 489 L 346 487 L 349 484 L 351 480 L 351 476 L 352 475 L 351 467 L 349 463 L 346 460 L 342 458 L 333 458 L 332 459 Z M 334 462 L 340 462 L 342 463 L 345 466 L 345 468 L 346 469 L 346 478 L 344 482 L 340 485 L 334 485 L 329 479 L 329 476 L 328 475 L 329 468 Z M 275 458 L 274 459 L 274 488 L 275 489 L 287 489 L 288 488 L 292 488 L 297 485 L 301 477 L 301 470 L 299 465 L 294 460 L 292 460 L 291 459 L 287 459 L 286 458 Z M 282 462 L 289 463 L 295 468 L 295 478 L 294 480 L 291 483 L 286 484 L 285 485 L 282 485 L 280 483 L 280 464 Z M 225 458 L 224 459 L 224 489 L 229 489 L 229 468 L 230 467 L 232 468 L 244 487 L 246 489 L 250 489 L 251 488 L 251 459 L 250 458 L 246 458 L 245 459 L 245 476 L 244 477 L 238 469 L 233 460 L 231 458 Z M 182 458 L 178 460 L 173 467 L 173 472 L 172 473 L 173 474 L 173 480 L 175 484 L 178 487 L 182 489 L 192 489 L 194 488 L 200 481 L 200 479 L 201 478 L 201 469 L 199 464 L 194 459 L 192 459 L 191 458 Z M 184 462 L 190 462 L 195 468 L 196 476 L 194 481 L 190 485 L 184 485 L 182 484 L 178 478 L 178 469 L 180 465 Z M 130 458 L 130 489 L 150 489 L 151 488 L 151 485 L 150 484 L 149 485 L 147 484 L 141 484 L 140 485 L 138 485 L 135 483 L 135 458 Z M 435 400 L 430 402 L 426 406 L 423 412 L 423 415 L 422 416 L 423 426 L 425 431 L 430 436 L 434 438 L 445 438 L 449 436 L 455 429 L 455 427 L 456 426 L 456 413 L 453 406 L 447 401 L 445 401 L 444 400 Z M 436 405 L 443 405 L 447 409 L 449 414 L 449 424 L 448 425 L 448 427 L 446 431 L 441 434 L 438 434 L 434 432 L 431 428 L 431 426 L 430 425 L 430 413 L 432 409 Z M 409 400 L 408 401 L 409 402 L 409 438 L 415 438 L 416 437 L 416 401 L 415 400 L 414 401 Z M 371 400 L 371 438 L 387 438 L 395 435 L 399 431 L 402 423 L 402 415 L 401 414 L 401 411 L 398 406 L 394 403 L 389 401 L 379 401 L 378 400 L 374 400 L 373 401 Z M 380 405 L 381 406 L 387 406 L 389 407 L 393 411 L 394 416 L 395 417 L 395 421 L 392 429 L 388 432 L 386 432 L 385 433 L 379 433 L 378 432 L 378 407 Z M 335 400 L 334 401 L 334 409 L 335 410 L 334 412 L 334 420 L 335 421 L 335 431 L 336 433 L 339 436 L 343 438 L 355 438 L 359 436 L 363 431 L 363 400 L 361 401 L 360 400 L 359 401 L 357 400 L 356 401 L 356 429 L 352 433 L 346 433 L 342 429 L 342 401 L 341 400 L 340 401 Z M 309 400 L 307 403 L 307 405 L 303 415 L 303 418 L 298 431 L 297 438 L 303 438 L 305 435 L 305 432 L 308 428 L 319 428 L 321 430 L 322 435 L 324 438 L 330 438 L 330 435 L 325 422 L 325 419 L 324 418 L 319 401 L 318 400 Z M 313 406 L 315 408 L 316 414 L 319 421 L 317 424 L 310 424 L 308 422 L 310 417 L 310 414 L 312 410 L 312 407 Z M 243 400 L 242 401 L 242 438 L 249 438 L 249 409 L 250 408 L 252 409 L 266 437 L 267 438 L 275 438 L 275 401 L 274 400 L 272 401 L 268 400 L 268 424 L 266 425 L 254 401 L 253 400 L 250 400 L 249 401 Z M 228 400 L 227 401 L 227 437 L 228 438 L 234 438 L 235 437 L 235 401 L 234 400 L 232 401 Z M 194 400 L 193 401 L 193 406 L 203 406 L 204 407 L 204 437 L 205 438 L 211 438 L 211 407 L 212 406 L 222 406 L 223 405 L 222 404 L 222 402 L 223 401 L 222 400 Z M 160 400 L 159 401 L 159 438 L 166 438 L 166 423 L 167 422 L 173 422 L 175 424 L 182 438 L 189 438 L 181 421 L 188 415 L 188 408 L 186 404 L 181 401 L 175 401 L 174 400 Z M 166 407 L 168 405 L 170 405 L 171 406 L 172 405 L 173 406 L 178 406 L 181 409 L 181 413 L 178 416 L 168 417 L 166 415 Z M 133 400 L 131 403 L 131 406 L 126 419 L 126 422 L 121 435 L 121 438 L 128 438 L 130 430 L 132 428 L 143 428 L 145 430 L 148 438 L 154 438 L 153 431 L 147 415 L 147 412 L 144 405 L 144 402 L 142 400 Z M 138 406 L 140 410 L 140 413 L 141 414 L 143 422 L 141 424 L 134 424 L 132 422 L 134 418 L 136 408 Z M 76 401 L 76 403 L 77 404 L 77 438 L 83 438 L 84 437 L 84 409 L 85 408 L 88 416 L 88 419 L 89 420 L 92 435 L 94 438 L 100 438 L 102 428 L 103 427 L 103 424 L 104 423 L 104 420 L 105 419 L 105 416 L 106 415 L 106 412 L 108 408 L 109 409 L 109 438 L 116 438 L 116 400 L 114 401 L 113 400 L 111 401 L 110 400 L 104 400 L 103 401 L 102 409 L 101 410 L 101 413 L 99 418 L 99 422 L 97 427 L 95 426 L 90 401 L 89 400 L 77 400 Z M 383 325 L 384 326 L 383 327 L 384 328 L 384 346 L 455 346 L 455 324 L 384 324 Z M 237 326 L 238 327 L 237 328 L 238 329 L 238 346 L 295 346 L 295 324 L 238 324 Z M 77 324 L 77 346 L 148 346 L 148 324 Z M 130 167 L 130 296 L 148 296 L 148 188 L 150 186 L 170 190 L 173 192 L 175 192 L 178 194 L 180 194 L 184 196 L 200 207 L 212 219 L 221 232 L 227 244 L 227 246 L 229 249 L 229 251 L 232 258 L 232 261 L 233 262 L 233 265 L 235 270 L 236 283 L 237 284 L 237 296 L 295 296 L 295 294 L 296 293 L 297 275 L 298 274 L 298 270 L 299 269 L 299 265 L 300 264 L 301 257 L 302 256 L 304 248 L 306 245 L 306 243 L 311 233 L 319 221 L 329 210 L 345 198 L 365 189 L 382 186 L 384 188 L 384 294 L 383 295 L 384 296 L 401 296 L 401 167 L 386 167 L 385 168 L 378 168 L 377 169 L 372 169 L 371 170 L 364 171 L 360 173 L 357 173 L 338 181 L 320 193 L 313 200 L 312 200 L 303 210 L 291 228 L 283 245 L 283 247 L 278 260 L 275 276 L 273 278 L 258 278 L 256 276 L 255 268 L 252 260 L 252 257 L 242 232 L 240 230 L 237 223 L 227 209 L 211 193 L 198 184 L 182 176 L 180 176 L 177 174 L 175 174 L 171 172 L 168 172 L 163 170 L 159 170 L 158 169 L 154 169 L 153 168 L 146 168 L 145 167 Z M 77 66 L 77 296 L 94 296 L 94 86 L 95 85 L 107 86 L 108 87 L 117 88 L 118 89 L 126 90 L 130 92 L 137 93 L 138 94 L 140 94 L 144 96 L 147 96 L 153 99 L 161 101 L 164 103 L 171 105 L 176 108 L 178 108 L 202 120 L 204 122 L 212 126 L 227 136 L 239 146 L 240 146 L 246 152 L 247 152 L 265 170 L 266 170 L 286 150 L 287 150 L 292 145 L 308 133 L 317 128 L 322 124 L 327 122 L 329 120 L 355 107 L 357 107 L 367 102 L 375 100 L 378 98 L 380 98 L 384 96 L 387 96 L 394 93 L 397 93 L 401 91 L 404 91 L 409 89 L 413 89 L 414 88 L 418 88 L 419 87 L 423 87 L 424 86 L 436 85 L 437 86 L 437 296 L 455 296 L 455 66 L 435 67 L 434 68 L 427 68 L 426 69 L 421 69 L 420 70 L 406 72 L 401 74 L 397 74 L 393 76 L 389 76 L 382 79 L 379 79 L 378 80 L 361 85 L 358 87 L 353 88 L 321 103 L 319 105 L 304 113 L 283 128 L 266 143 L 260 139 L 248 128 L 227 113 L 212 105 L 210 103 L 178 88 L 173 87 L 170 85 L 168 85 L 149 78 L 146 78 L 142 76 L 139 76 L 138 75 L 135 75 L 134 74 L 131 74 L 126 72 L 122 72 L 121 71 L 117 71 L 116 70 L 111 70 L 110 69 L 105 69 L 104 68 L 97 68 L 96 67 Z" fill="#FFFFFF" fill-rule="evenodd"/>
</svg>
