<?xml version="1.0" encoding="iso-8859-1"?>
<!-- Generator: Adobe Illustrator 26.0.1, SVG Export Plug-In . SVG Version: 6.00 Build 0)  -->
<svg version="1.1" id="Layer_1" xmlns="http://www.w3.org/2000/svg" xmlns:xlink="http://www.w3.org/1999/xlink" x="0px" y="0px"
	 viewBox="0 0 803 992" style="enable-background:new 0 0 1000 1000;" xml:space="preserve">
<g id="watermark_1_">
	<g>
		<g id="watermark" style="opacity:1;">
			<g>
				<g>
					<g>
						<g>
							<polygon style="fill:#FFFFFF;" points="421.112,924.528 409.007,952.493 402.615,952.493 390.55,924.528 397.541,924.528 
								406.051,944.503 414.68,924.528 							"/>
						</g>
						<g>
							<path style="fill:#FFFFFF;" d="M442.323,943.185h-16.26c0.599,2.677,2.876,4.315,6.153,4.315
								c2.277,0,3.915-0.679,5.393-2.077l3.316,3.595c-1.997,2.278-4.994,3.476-8.868,3.476c-7.431,0-12.265-4.674-12.265-11.067
								c0-6.432,4.914-11.066,11.466-11.066c6.312,0,11.186,4.235,11.186,11.146C442.443,941.987,442.363,942.666,442.323,943.185
								 M425.983,939.55h10.587c-0.44-2.717-2.478-4.475-5.274-4.475C428.46,935.075,426.422,936.793,425.983,939.55"/>
						</g>
						<g>
							<path style="fill:#FFFFFF;" d="M444.997,941.427c0-6.471,4.994-11.066,11.985-11.066c4.514,0,8.07,1.958,9.628,5.473
								l-4.834,2.597c-1.159-2.038-2.877-2.956-4.834-2.956c-3.156,0-5.633,2.198-5.633,5.952c0,3.756,2.477,5.953,5.633,5.953
								c1.958,0,3.675-0.879,4.834-2.956l4.834,2.637c-1.558,3.436-5.114,5.433-9.628,5.433
								C449.991,952.493,444.997,947.899,444.997,941.427"/>
						</g>
						<g>
							<path style="fill:#FFFFFF;" d="M484.386,951.135c-1.279,0.919-3.157,1.358-5.074,1.358c-5.073,0-8.03-2.597-8.03-7.711
								v-8.829h-3.316v-4.794h3.316v-5.233h6.232v5.233h5.353v4.794h-5.353v8.749c0,1.837,0.998,2.836,2.677,2.836
								c0.918,0,1.837-0.279,2.517-0.799L484.386,951.135z"/>
						</g>
					</g>
					<g>
						<path style="fill:#FFFFFF;" d="M527.157,930.68v5.753c-0.519-0.04-0.918-0.08-1.398-0.08c-3.435,0-5.713,1.877-5.713,5.993
							v10.147h-6.232V931h5.953v2.836C521.284,931.759,523.841,930.68,527.157,930.68"/>
					</g>
					<g>
						<path style="fill:#FFFFFF;" d="M528.954,949.257l2.197-4.874c2.357,1.718,5.873,2.916,9.229,2.916
							c3.836,0,5.393-1.278,5.393-2.996c0-5.233-16.26-1.638-16.26-12.025c0-4.754,3.835-8.709,11.785-8.709
							c3.516,0,7.112,0.839,9.708,2.477l-1.998,4.914c-2.597-1.478-5.273-2.197-7.75-2.197c-3.835,0-5.313,1.438-5.313,3.196
							c0,5.154,16.259,1.598,16.259,11.865c0,4.675-3.875,8.67-11.865,8.67C535.905,952.493,531.43,951.175,528.954,949.257"/>
					</g>
					<g>
						<path style="fill:#FFFFFF;" d="M577.131,943.185h-16.26c0.599,2.677,2.876,4.315,6.153,4.315c2.277,0,3.915-0.679,5.393-2.077
							l3.316,3.595c-1.998,2.278-4.994,3.476-8.869,3.476c-7.431,0-12.265-4.674-12.265-11.067c0-6.432,4.914-11.066,11.466-11.066
							c6.312,0,11.187,4.235,11.187,11.146C577.251,941.987,577.171,942.666,577.131,943.185 M560.791,939.55h10.587
							c-0.439-2.717-2.477-4.475-5.273-4.475C563.268,935.075,561.231,936.793,560.791,939.55"/>
					</g>
					<g>
						<path style="fill:#FFFFFF;" d="M602.337,943.185h-16.26c0.599,2.677,2.876,4.315,6.152,4.315c2.277,0,3.915-0.679,5.393-2.077
							l3.316,3.595c-1.998,2.278-4.994,3.476-8.869,3.476c-7.431,0-12.265-4.674-12.265-11.067c0-6.432,4.914-11.066,11.466-11.066
							c6.312,0,11.186,4.235,11.186,11.146C602.457,941.987,602.377,942.666,602.337,943.185 M585.997,939.55h10.587
							c-0.439-2.717-2.477-4.475-5.273-4.475C588.474,935.075,586.437,936.793,585.997,939.55"/>
					</g>
					<g>
						<polygon style="fill:#FFFFFF;" points="615.838,944.064 612.841,947.02 612.841,952.493 606.61,952.493 606.61,922.85 
							612.841,922.85 612.841,939.629 621.95,931 629.381,931 620.432,940.108 630.18,952.493 622.63,952.493 						"/>
					</g>
					<g>
						<path style="fill:#FFFFFF;" d="M514.371,955.416L514.371,955.416l-6.226-6.226c-0.947,1.107-2.075,2.054-3.339,2.796
							c-0.201,0.15-0.406,0.296-0.616,0.433l6.589,6.589c0.992,0.992,2.601,0.992,3.592,0
							C515.363,958.017,515.363,956.408,514.371,955.416"/>
					</g>
					<g>
						<path style="fill:#FFFFFF;" d="M499.965,929.04c0.48-0.377,1.077-0.612,1.735-0.612c0.091,0,0.181,0.005,0.27,0.013
							c-0.466-0.34-1.041-0.542-1.663-0.542c-0.859,0-1.619,0.392-2.137,0.998c-0.111,0-0.218,0.013-0.328,0.016
							c0.086-0.167,0.139-0.354,0.139-0.555c0-0.509-0.311-0.945-0.752-1.13c0.19,0.275,0.301,0.608,0.301,0.968
							c0,0.267-0.066,0.517-0.176,0.742c-6.119,0.437-10.95,5.527-10.95,11.757c0,6.516,5.283,11.799,11.799,11.799
							c6.517,0,11.8-5.283,11.8-11.799C510.004,934.777,505.644,929.892,499.965,929.04 M495.61,932.114
							c0.947,0,1.837,0.244,2.611,0.674c0.813-0.532,1.785-0.842,2.828-0.842c1.547,0,2.934,0.68,3.883,1.756
							c-0.948-0.826-2.186-1.328-3.541-1.328c-0.977,0-1.895,0.261-2.686,0.716c-0.172,0.1-0.34,0.208-0.499,0.326
							c-0.142-0.104-0.29-0.203-0.444-0.292c-0.803-0.476-1.741-0.749-2.743-0.749c-0.653,0-1.279,0.117-1.86,0.331
							C493.895,932.328,494.727,932.114,495.61,932.114 M503.858,941.785c0.25,0.664,0.394,1.38,0.394,2.131
							c0,3.34-2.707,6.047-6.047,6.047c-3.339,0-6.047-2.707-6.047-6.047c0-0.751,0.143-1.467,0.394-2.131
							c-1.35-0.831-2.253-2.317-2.253-4.019c0-2.607,2.114-4.72,4.72-4.72c1.23,0,2.346,0.474,3.186,1.244
							c0.84-0.77,1.956-1.244,3.186-1.244c2.607,0,4.72,2.113,4.72,4.72C506.111,939.467,505.208,940.954,503.858,941.785"/>
					</g>
					<g>
						<path style="fill:#FFFFFF;" d="M503.627,937.351c0,1.082-0.879,1.961-1.961,1.961c-1.082,0-1.961-0.879-1.961-1.961
							s0.879-1.961,1.961-1.961c0.22,0,0.428,0.037,0.625,0.102c-0.065,0.135-0.099,0.287-0.099,0.445
							c0,0.595,0.482,1.076,1.077,1.076c0.11,0,0.217-0.017,0.318-0.048C503.613,937.089,503.627,937.218,503.627,937.351"/>
					</g>
					<g>
						<path style="fill:#FFFFFF;" d="M496.201,937.351c0,0.818-0.665,1.482-1.483,1.482c-0.818,0-1.483-0.664-1.483-1.482
							s0.665-1.483,1.483-1.483c0.166,0,0.324,0.027,0.473,0.077c-0.049,0.102-0.075,0.217-0.075,0.337
							c0,0.449,0.364,0.814,0.814,0.814c0.083,0,0.164-0.013,0.241-0.036C496.191,937.153,496.201,937.251,496.201,937.351"/>
					</g>
					<g>
						<g>
							<g>
								<rect x="484.56" y="939.024" style="fill:#FFFFFF;" width="1.34" height="1.34"/>
							</g>
							<g>
								<rect x="510.51" y="939.024" style="fill:#FFFFFF;" width="1.34" height="1.34"/>
							</g>
							<g>
								<path style="fill:#FFFFFF;" d="M511.332,939.572h-0.304c0-7.07-5.752-12.823-12.823-12.823
									c-7.07,0-12.823,5.753-12.823,12.823h-0.305c0-3.506,1.365-6.803,3.845-9.282c2.479-2.48,5.776-3.845,9.282-3.845
									c3.507,0,6.803,1.365,9.283,3.845C509.966,932.769,511.332,936.065,511.332,939.572"/>
							</g>
						</g>
						<g>
							<rect x="497.534" y="925.927" style="fill:#FFFFFF;" width="1.34" height="1.34"/>
						</g>
						<g>
							<rect x="489.006" y="926.445" style="fill:#FFFFFF;" width="18.397" height="0.304"/>
						</g>
						<g>
							<path style="fill:#FFFFFF;" d="M489.494,926.658c0,0.235-0.191,0.427-0.427,0.427c-0.235,0-0.426-0.191-0.426-0.427
								s0.191-0.427,0.426-0.427C489.303,926.231,489.494,926.422,489.494,926.658"/>
						</g>
						<g>
							<path style="fill:#FFFFFF;" d="M507.829,926.658c0,0.235-0.191,0.427-0.427,0.427c-0.235,0-0.426-0.191-0.426-0.427
								s0.191-0.427,0.426-0.427C507.639,926.231,507.829,926.422,507.829,926.658"/>
						</g>
					</g>
				</g>
				<g>
					<path style="fill:#FFFFFF;" d="M640.109,951.171c0,3.395-5.146,3.395-5.146,0C634.963,947.779,640.109,947.779,640.109,951.171
						z"/>
				</g>
				<g>
					<g>
						<g>
							<path style="fill:#FFFFFF;" d="M307.849,936.236l3.859,13.253l4.038-13.253h4.823l-6.145,17.721h-5.073l-1.822-5.216
								l-1.572-5.896l-1.571,5.896l-1.822,5.216h-5.073l-6.18-17.721h4.858l4.038,13.253l3.822-13.253H307.849z"/>
						</g>
						<g>
							<path style="fill:#FFFFFF;" d="M340.449,936.236l3.859,13.253l4.038-13.253h4.823l-6.145,17.721h-5.073l-1.822-5.216
								l-1.571-5.896l-1.572,5.896l-1.822,5.216h-5.073l-6.18-17.721h4.858l4.038,13.253l3.822-13.253H340.449z"/>
						</g>
						<g>
							<path style="fill:#FFFFFF;" d="M373.048,936.236l3.859,13.253l4.038-13.253h4.823l-6.145,17.721h-5.073l-1.822-5.216
								l-1.572-5.896l-1.571,5.896l-1.822,5.216h-5.073l-6.18-17.721h4.858l4.038,13.253l3.822-13.253H373.048z"/>
						</g>
					</g>
					<g>
						<path style="fill:#FFFFFF;" d="M393.123,951.412c0,3.395-5.146,3.395-5.146,0C387.977,948.02,393.123,948.02,393.123,951.412z
							"/>
					</g>
					<g>
						<path style="fill:#FFFFFF;" d="M658.296,951.171c-2.036,2.001-4.177,2.787-6.787,2.787c-5.108,0-9.361-3.072-9.361-9.323
							c0-6.251,4.253-9.326,9.361-9.326c2.502,0,4.43,0.716,6.359,2.609l-2.752,2.894c-1.036-0.931-2.321-1.393-3.534-1.393
							c-2.929,0-5.073,2.144-5.073,5.216c0,3.357,2.286,5.143,5,5.143c1.393,0,2.787-0.393,3.857-1.463L658.296,951.171z"/>
					</g>
					<g>
						<path style="fill:#FFFFFF;" d="M678.097,944.777c0,5.073-3.465,9.181-9.181,9.181c-5.716,0-9.146-4.107-9.146-9.181
							c0-5.038,3.502-9.181,9.111-9.181S678.097,939.739,678.097,944.777z M664.128,944.777c0,2.679,1.609,5.181,4.788,5.181
							c3.179,0,4.788-2.502,4.788-5.181c0-2.644-1.859-5.216-4.788-5.216C665.772,939.561,664.128,942.133,664.128,944.777z"/>
					</g>
					<g>
						<path style="fill:#FFFFFF;" d="M692.828,953.958v-9.431c0-2.324-1.216-4.43-3.61-4.43c-2.356,0-3.75,2.106-3.75,4.43v9.431
							h-4.36v-17.649h4.038l0.323,2.144c0.928-1.786,2.964-2.429,4.643-2.429c2.109,0,4.218,0.858,5.216,3.287
							c1.574-2.502,3.61-3.217,5.896-3.217c5,0,7.467,3.075,7.467,8.36v9.504h-4.361v-9.504c0-2.321-0.963-4.288-3.322-4.288
							c-2.356,0-3.822,2.036-3.822,4.36v9.431H692.828z"/>
					</g>
				</g>
			</g>
		</g>
		<g style="opacity:1;">
			<g>
				<g>
					<path style="fill:#FFFFFF;" d="M708.973,859.493c-0.013-2.665-2.087-4.618-4.766-4.659c-2.011-0.031-1.81,0.261-1.815-1.887
						c-0.006-2.389-0.015-4.778,0.006-7.166c0.007-0.824-0.243-1.505-0.787-2.125c-5.098-5.81-10.184-11.63-15.281-17.441
						c-0.262-0.299-0.599-0.532-0.901-0.796c-13.528,0-27.055,0-40.583,0c-1.729,0.639-2.482,1.889-2.478,3.72
						c0.021,8.159,0.009,16.318,0.008,24.478c0,1.21-0.007,1.281-1.197,1.201c-3.258-0.221-5.477,2.147-5.436,5.426
						c0.096,7.568,0.028,15.137,0.031,22.706c0.001,3.44,1.887,5.32,5.333,5.331c1.267,0.004,1.268,0.004,1.268,1.306
						c0.001,4.831-0.002,9.662,0.002,14.493c0.002,2.595,1.262,3.855,3.85,3.855c17.446,0.001,34.891,0.001,52.337,0
						c2.543,0,3.822-1.268,3.824-3.799c0.005-4.912,0.001-9.823,0.003-14.735c0-1.115,0.005-1.112,1.131-1.121
						c0.589-0.005,1.177,0.017,1.761-0.127c2.169-0.535,3.68-2.273,3.689-4.503C709.007,875.597,709.011,867.545,708.973,859.493z
						 M647.034,828.716c11.619-0.001,23.237-0.001,34.856,0c1.193,0,1.206,0.015,1.207,1.222c0.001,4.884-0.002,9.767,0.002,14.651
						c0.001,1.765,0.543,2.305,2.307,2.306c4.159,0.003,8.318,0,12.477,0.003c0.997,0.001,1.044,0.046,1.046,1.052
						c0.006,1.932,0.005,3.864,0,5.796c-0.003,1.038-0.051,1.085-1.098,1.085c-8.479,0.002-16.958,0.001-25.438,0.001
						c-8.452,0-16.905,0-25.357,0c-1.198,0-1.202-0.003-1.202-1.221c-0.001-7.889-0.001-15.778,0-23.667
						C645.835,828.724,645.844,828.716,647.034,828.716z M697.728,903.645c-8.454,0.001-16.908,0.001-25.362,0.001
						c-8.427,0-16.854,0.001-25.281,0c-1.245,0-1.249-0.003-1.249-1.262c-0.001-4.348-0.003-8.696,0.001-13.043
						c0.001-1.01,0.051-1.059,1.041-1.059c16.989-0.002,33.977-0.002,50.966,0c1.041,0,1.086,0.044,1.087,1.094
						c0.003,4.348,0.003,8.696,0.001,13.043C698.931,903.634,698.92,903.645,697.728,903.645z"/>
				</g>
				<g>
					<g>
						<rect x="668.546" y="828.478" style="fill:#FFFFFF;" width="3.825" height="2.295"/>
					</g>
					<g>
						<rect x="664.722" y="830.773" style="fill:#FFFFFF;" width="3.825" height="2.295"/>
					</g>
					<g>
						<rect x="668.546" y="833.068" style="fill:#FFFFFF;" width="3.825" height="2.295"/>
					</g>
					<g>
						<rect x="664.722" y="835.363" style="fill:#FFFFFF;" width="3.825" height="2.295"/>
					</g>
					<g>
						<rect x="668.546" y="837.658" style="fill:#FFFFFF;" width="3.825" height="2.295"/>
					</g>
					<g>
						<rect x="664.722" y="839.953" style="fill:#FFFFFF;" width="3.825" height="2.295"/>
					</g>
					<g>
						<rect x="668.546" y="842.247" style="fill:#FFFFFF;" width="3.825" height="2.295"/>
					</g>
					<g>
						<rect x="664.722" y="844.542" style="fill:#FFFFFF;" width="3.825" height="2.295"/>
					</g>
					<g>
						<rect x="668.546" y="846.837" style="fill:#FFFFFF;" width="3.825" height="2.295"/>
					</g>
					<g>
						<rect x="664.722" y="849.132" style="fill:#FFFFFF;" width="3.825" height="2.295"/>
					</g>
					<g>
						<rect x="668.546" y="851.427" style="fill:#FFFFFF;" width="3.825" height="2.295"/>
					</g>
					<g>
						<rect x="664.722" y="853.722" style="fill:#FFFFFF;" width="3.825" height="2.295"/>
					</g>
				</g>
			</g>
			<g>
				<path style="fill:#FFFFFF;" d="M364.231,859.493c-0.013-2.665-2.087-4.618-4.766-4.659c-2.011-0.031-1.81,0.261-1.815-1.887
					c-0.006-2.389-0.015-4.778,0.006-7.166c0.007-0.824-0.243-1.505-0.787-2.125c-5.098-5.81-10.184-11.63-15.281-17.441
					c-0.262-0.299-0.599-0.532-0.901-0.796c-13.528,0-27.055,0-40.583,0c-1.729,0.639-2.482,1.889-2.478,3.72
					c0.021,8.159,0.009,16.318,0.008,24.478c0,1.21-0.007,1.281-1.197,1.201c-3.258-0.221-5.477,2.147-5.436,5.426
					c0.096,7.568,0.028,15.137,0.031,22.706c0.001,3.44,1.887,5.32,5.333,5.331c1.267,0.004,1.268,0.004,1.268,1.306
					c0.001,4.831-0.002,9.662,0.002,14.493c0.002,2.595,1.262,3.855,3.85,3.855c17.446,0.001,34.891,0.001,52.337,0
					c2.543,0,3.822-1.268,3.824-3.799c0.005-4.912,0.001-9.823,0.003-14.735c0-1.115,0.004-1.112,1.131-1.121
					c0.589-0.005,1.177,0.017,1.761-0.127c2.169-0.535,3.68-2.273,3.689-4.503C364.264,875.597,364.269,867.545,364.231,859.493z
					 M302.292,828.716c11.619-0.001,23.237-0.001,34.856,0c1.192,0,1.206,0.015,1.207,1.222c0.001,4.884-0.001,9.767,0.002,14.651
					c0.001,1.765,0.543,2.305,2.307,2.306c4.159,0.003,8.318,0,12.477,0.003c0.997,0.001,1.044,0.046,1.046,1.052
					c0.006,1.932,0.005,3.864,0,5.796c-0.003,1.038-0.051,1.085-1.098,1.085c-8.479,0.002-16.958,0.001-25.438,0.001
					c-8.452,0-16.905,0-25.357,0c-1.198,0-1.202-0.003-1.202-1.221c-0.001-7.889-0.001-15.778,0-23.667
					C301.093,828.724,301.102,828.716,302.292,828.716z M352.985,903.645c-8.454,0.001-16.908,0.001-25.362,0.001
					c-8.427,0-16.854,0.001-25.281,0c-1.245,0-1.249-0.003-1.249-1.262c-0.001-4.348-0.003-8.696,0.001-13.043
					c0.001-1.01,0.051-1.059,1.041-1.059c16.989-0.002,33.977-0.002,50.966,0c1.041,0,1.086,0.044,1.087,1.094
					c0.003,4.348,0.003,8.696,0.001,13.043C354.188,903.634,354.177,903.645,352.985,903.645z"/>
			</g>
			<g>
				<path style="fill:#FFFFFF;" d="M303.581,879.891v-17.193h6.051c0.816,0,1.581,0.132,2.293,0.396
					c0.712,0.264,1.333,0.636,1.861,1.117c0.527,0.48,0.944,1.053,1.248,1.717c0.304,0.665,0.456,1.397,0.456,2.198
					c0,0.816-0.152,1.557-0.456,2.221s-0.721,1.236-1.248,1.717c-0.529,0.48-1.149,0.852-1.861,1.117
					c-0.713,0.264-1.477,0.396-2.293,0.396h-2.809v6.315H303.581z M309.68,870.503c0.848,0,1.489-0.241,1.921-0.721
					c0.432-0.48,0.648-1.032,0.648-1.656c0-0.304-0.052-0.601-0.156-0.889c-0.105-0.288-0.264-0.54-0.48-0.756
					c-0.216-0.217-0.484-0.388-0.805-0.516c-0.32-0.129-0.696-0.193-1.128-0.193h-2.857v4.731H309.68z"/>
				<path style="fill:#FFFFFF;" d="M317.796,862.699h3.77l6.916,11.526h0.191l-0.191-3.314v-8.212h3.217v17.193h-3.409l-7.3-12.174
					h-0.191l0.191,3.314v8.86h-3.193V862.699z"/>
				<path style="fill:#FFFFFF;" d="M343.08,870.454h8.429c0.048,0.193,0.087,0.425,0.12,0.697c0.031,0.272,0.048,0.544,0.048,0.816
					c0,1.104-0.167,2.145-0.504,3.121c-0.336,0.977-0.865,1.849-1.585,2.618c-0.768,0.817-1.69,1.449-2.761,1.897
					c-1.073,0.448-2.298,0.672-3.674,0.672c-1.249,0-2.426-0.224-3.53-0.672c-1.104-0.447-2.065-1.072-2.881-1.873
					c-0.816-0.8-1.465-1.749-1.945-2.845c-0.48-1.097-0.72-2.293-0.72-3.59c0-1.296,0.24-2.493,0.72-3.589s1.129-2.045,1.945-2.845
					c0.816-0.8,1.777-1.425,2.881-1.873c1.104-0.448,2.281-0.672,3.53-0.672c1.392,0,2.637,0.24,3.734,0.72
					c1.097,0.48,2.036,1.144,2.821,1.993l-2.232,2.185c-0.562-0.592-1.185-1.044-1.874-1.357s-1.513-0.468-2.473-0.468
					c-0.786,0-1.53,0.14-2.234,0.421c-0.705,0.28-1.321,0.676-1.85,1.188c-0.527,0.512-0.949,1.133-1.259,1.861
					c-0.312,0.728-0.469,1.541-0.469,2.437c0,0.897,0.157,1.709,0.469,2.438c0.311,0.728,0.735,1.349,1.271,1.861
					c0.536,0.512,1.156,0.909,1.862,1.188c0.704,0.281,1.457,0.421,2.258,0.421c0.911,0,1.684-0.132,2.317-0.396
					c0.632-0.264,1.171-0.604,1.62-1.021c0.321-0.288,0.598-0.652,0.829-1.092s0.412-0.932,0.541-1.477h-5.404V870.454z"/>
			</g>
			<g>
				<path style="fill:#FFFFFF;" d="M443.437,859.493c-0.013-2.665-2.087-4.618-4.766-4.659c-2.011-0.031-1.81,0.261-1.815-1.887
					c-0.006-2.389-0.015-4.778,0.006-7.166c0.007-0.824-0.243-1.505-0.787-2.125c-5.098-5.81-10.184-11.63-15.281-17.441
					c-0.262-0.299-0.599-0.532-0.901-0.796c-13.528,0-27.055,0-40.583,0c-1.729,0.639-2.482,1.889-2.478,3.72
					c0.021,8.159,0.009,16.318,0.008,24.478c0,1.21-0.007,1.281-1.197,1.201c-3.258-0.221-5.477,2.147-5.436,5.426
					c0.096,7.568,0.028,15.137,0.031,22.706c0.001,3.44,1.887,5.32,5.333,5.331c1.267,0.004,1.268,0.004,1.268,1.306
					c0.001,4.831-0.002,9.662,0.002,14.493c0.002,2.595,1.262,3.855,3.85,3.855c17.446,0.001,34.891,0.001,52.337,0
					c2.543,0,3.822-1.268,3.824-3.799c0.005-4.912,0.001-9.823,0.003-14.735c0-1.115,0.004-1.112,1.131-1.121
					c0.589-0.005,1.177,0.017,1.761-0.127c2.169-0.535,3.68-2.273,3.689-4.503C443.47,875.597,443.475,867.545,443.437,859.493z
					 M381.498,828.716c11.619-0.001,23.237-0.001,34.856,0c1.192,0,1.206,0.015,1.207,1.222c0.001,4.884-0.001,9.767,0.002,14.651
					c0.001,1.765,0.543,2.305,2.307,2.306c4.159,0.003,8.318,0,12.477,0.003c0.997,0.001,1.044,0.046,1.046,1.052
					c0.006,1.932,0.005,3.864,0,5.796c-0.003,1.038-0.051,1.085-1.098,1.085c-8.479,0.002-16.958,0.001-25.438,0.001
					c-8.452,0-16.905,0-25.357,0c-1.198,0-1.202-0.003-1.202-1.221c-0.001-7.889-0.001-15.778,0-23.667
					C380.299,828.724,380.308,828.716,381.498,828.716z M432.192,903.645c-8.454,0.001-16.908,0.001-25.362,0.001
					c-8.427,0-16.854,0.001-25.281,0c-1.245,0-1.249-0.003-1.249-1.262c-0.001-4.348-0.002-8.696,0.001-13.043
					c0.001-1.01,0.051-1.059,1.041-1.059c16.989-0.002,33.977-0.002,50.966,0c1.041,0,1.086,0.044,1.087,1.094
					c0.003,4.348,0.003,8.696,0.001,13.043C433.394,903.634,433.384,903.645,432.192,903.645z"/>
			</g>
			<g>
				<path style="fill:#FFFFFF;" d="M402.272,862.699h3.698l6.46,17.193h-3.578l-1.416-4.106h-6.628l-1.417,4.106h-3.578
					L402.272,862.699z M406.379,872.808l-1.537-4.298l-0.625-2.089h-0.192l-0.625,2.089l-1.537,4.298H406.379z"/>
				<path style="fill:#FFFFFF;" d="M415.815,866.541c-0.273,0-0.533-0.052-0.781-0.156c-0.248-0.104-0.465-0.248-0.648-0.432
					c-0.184-0.184-0.328-0.396-0.432-0.636c-0.105-0.241-0.156-0.504-0.156-0.793s0.052-0.552,0.156-0.793
					c0.104-0.24,0.248-0.452,0.432-0.636c0.184-0.184,0.4-0.328,0.648-0.432c0.248-0.104,0.508-0.156,0.781-0.156
					c0.56,0,1.041,0.196,1.441,0.588c0.4,0.393,0.601,0.869,0.601,1.429c0,0.56-0.201,1.037-0.601,1.428
					C416.856,866.345,416.375,866.541,415.815,866.541z M414.255,879.891v-11.766h3.145v11.766H414.255z"/>
			</g>
			<g>
				<path style="fill:#FFFFFF;" d="M524.043,859.493c-0.013-2.665-2.087-4.618-4.766-4.659c-2.011-0.031-1.81,0.261-1.815-1.887
					c-0.006-2.389-0.015-4.778,0.006-7.166c0.007-0.824-0.243-1.505-0.787-2.125c-5.098-5.81-10.184-11.63-15.281-17.441
					c-0.262-0.299-0.599-0.532-0.901-0.796c-13.528,0-27.055,0-40.583,0c-1.729,0.639-2.482,1.889-2.478,3.72
					c0.021,8.159,0.009,16.318,0.008,24.478c0,1.21-0.007,1.281-1.197,1.201c-3.258-0.221-5.477,2.147-5.436,5.426
					c0.096,7.568,0.028,15.137,0.031,22.706c0.001,3.44,1.887,5.32,5.333,5.331c1.267,0.004,1.268,0.004,1.268,1.306
					c0.001,4.831-0.002,9.662,0.002,14.493c0.002,2.595,1.262,3.855,3.85,3.855c17.446,0.001,34.891,0.001,52.337,0
					c2.543,0,3.822-1.268,3.824-3.799c0.005-4.912,0.001-9.823,0.003-14.735c0-1.115,0.004-1.112,1.131-1.121
					c0.589-0.005,1.177,0.017,1.761-0.127c2.169-0.535,3.68-2.273,3.689-4.503C524.076,875.597,524.081,867.545,524.043,859.493z
					 M462.104,828.716c11.619-0.001,23.237-0.001,34.856,0c1.192,0,1.206,0.015,1.207,1.222c0.001,4.884-0.001,9.767,0.002,14.651
					c0.001,1.765,0.543,2.305,2.307,2.306c4.159,0.003,8.318,0,12.477,0.003c0.997,0.001,1.044,0.046,1.046,1.052
					c0.006,1.932,0.005,3.864,0,5.796c-0.003,1.038-0.051,1.085-1.098,1.085c-8.479,0.002-16.958,0.001-25.438,0.001
					c-8.452,0-16.905,0-25.357,0c-1.198,0-1.202-0.003-1.202-1.221c-0.001-7.889-0.001-15.778,0-23.667
					C460.905,828.724,460.914,828.716,462.104,828.716z M512.798,903.645c-8.454,0.001-16.908,0.001-25.362,0.001
					c-8.427,0-16.854,0.001-25.281,0c-1.245,0-1.249-0.003-1.249-1.262c-0.001-4.348-0.002-8.696,0.001-13.043
					c0.001-1.01,0.051-1.059,1.041-1.059c16.989-0.002,33.977-0.002,50.966,0c1.041,0,1.086,0.044,1.087,1.094
					c0.003,4.348,0.003,8.696,0.001,13.043C514,903.634,513.989,903.645,512.798,903.645z"/>
			</g>
			<g>
				<path style="fill:#FFFFFF;" d="M470.308,880.275c-0.737,0-1.441-0.104-2.113-0.312c-0.672-0.208-1.289-0.52-1.849-0.936
					c-0.56-0.416-1.048-0.925-1.464-1.525c-0.417-0.601-0.745-1.301-0.985-2.101l3.049-1.2c0.224,0.864,0.616,1.581,1.177,2.149
					s1.297,0.852,2.209,0.852c0.336,0,0.66-0.044,0.973-0.132c0.312-0.087,0.592-0.216,0.84-0.384
					c0.248-0.168,0.444-0.38,0.589-0.636c0.144-0.256,0.216-0.552,0.216-0.888c0-0.32-0.056-0.608-0.168-0.865
					c-0.112-0.255-0.3-0.495-0.564-0.72c-0.264-0.224-0.609-0.44-1.033-0.648c-0.424-0.208-0.948-0.424-1.572-0.648l-1.056-0.384
					c-0.465-0.16-0.933-0.376-1.405-0.648c-0.472-0.272-0.9-0.6-1.284-0.985c-0.385-0.384-0.701-0.836-0.949-1.357
					c-0.249-0.52-0.372-1.108-0.372-1.765c0-0.672,0.132-1.301,0.396-1.885c0.264-0.584,0.64-1.096,1.129-1.537
					c0.488-0.44,1.072-0.784,1.753-1.032c0.681-0.248,1.437-0.372,2.269-0.372c0.864,0,1.612,0.116,2.245,0.348
					c0.633,0.232,1.168,0.528,1.609,0.888c0.44,0.36,0.796,0.757,1.068,1.188c0.272,0.433,0.472,0.84,0.601,1.225l-2.857,1.2
					c-0.161-0.48-0.453-0.913-0.876-1.297c-0.425-0.384-1.005-0.576-1.741-0.576c-0.704,0-1.289,0.164-1.753,0.492
					c-0.465,0.329-0.697,0.757-0.697,1.285c0,0.512,0.224,0.949,0.672,1.309c0.448,0.36,1.161,0.708,2.137,1.044l1.081,0.36
					c0.688,0.241,1.316,0.517,1.885,0.828c0.568,0.312,1.056,0.684,1.465,1.117c0.408,0.433,0.72,0.925,0.936,1.477
					c0.217,0.552,0.324,1.189,0.324,1.909c0,0.897-0.18,1.669-0.54,2.317c-0.36,0.648-0.82,1.181-1.38,1.597
					c-0.561,0.416-1.193,0.728-1.897,0.936C471.668,880.172,470.98,880.275,470.308,880.275z"/>
				<path style="fill:#FFFFFF;" d="M477.175,862.699h3.506l3.554,10.349l0.625,2.209h0.192l0.672-2.209l3.698-10.349h3.506
					l-6.268,17.193h-3.409L477.175,862.699z"/>
				<path style="fill:#FFFFFF;" d="M502.388,870.454h8.428c0.048,0.193,0.088,0.425,0.12,0.697c0.033,0.272,0.049,0.544,0.049,0.816
					c0,1.104-0.169,2.145-0.505,3.121c-0.336,0.977-0.864,1.849-1.585,2.618c-0.768,0.817-1.688,1.449-2.761,1.897
					c-1.073,0.448-2.298,0.672-3.674,0.672c-1.249,0-2.425-0.224-3.529-0.672c-1.105-0.447-2.066-1.072-2.882-1.873
					c-0.816-0.8-1.465-1.749-1.945-2.845c-0.48-1.097-0.72-2.293-0.72-3.59c0-1.296,0.241-2.493,0.72-3.589
					c0.48-1.097,1.129-2.045,1.945-2.845c0.816-0.8,1.777-1.425,2.882-1.873c1.104-0.448,2.28-0.672,3.529-0.672
					c1.392,0,2.637,0.24,3.734,0.72c1.097,0.48,2.038,1.144,2.822,1.993l-2.234,2.185c-0.56-0.592-1.185-1.044-1.874-1.357
					c-0.687-0.312-1.512-0.468-2.473-0.468c-0.784,0-1.528,0.14-2.234,0.421c-0.704,0.28-1.321,0.676-1.848,1.188
					c-0.528,0.512-0.949,1.133-1.261,1.861c-0.312,0.728-0.468,1.541-0.468,2.437c0,0.897,0.156,1.709,0.468,2.438
					c0.312,0.728,0.737,1.349,1.273,1.861c0.536,0.512,1.156,0.909,1.86,1.188c0.705,0.281,1.457,0.421,2.258,0.421
					c0.913,0,1.685-0.132,2.317-0.396c0.632-0.264,1.173-0.604,1.621-1.021c0.32-0.288,0.596-0.652,0.828-1.092
					c0.233-0.44,0.412-0.932,0.541-1.477h-5.402V870.454z"/>
			</g>
			<g>
				<path style="fill:#FFFFFF;" d="M602.976,859.493c-0.013-2.665-2.087-4.618-4.766-4.659c-2.011-0.031-1.81,0.261-1.815-1.887
					c-0.006-2.389-0.015-4.778,0.006-7.166c0.007-0.824-0.243-1.505-0.787-2.125c-5.098-5.81-10.184-11.63-15.281-17.441
					c-0.262-0.299-0.599-0.532-0.901-0.796c-13.528,0-27.055,0-40.583,0c-1.729,0.639-2.482,1.889-2.478,3.72
					c0.021,8.159,0.009,16.318,0.008,24.478c0,1.21-0.007,1.281-1.197,1.201c-3.258-0.221-5.477,2.147-5.436,5.426
					c0.096,7.568,0.028,15.137,0.031,22.706c0.001,3.44,1.887,5.32,5.333,5.331c1.267,0.004,1.268,0.004,1.268,1.306
					c0.001,4.831-0.002,9.662,0.002,14.493c0.002,2.595,1.262,3.855,3.85,3.855c17.446,0.001,34.891,0.001,52.337,0
					c2.543,0,3.822-1.268,3.824-3.799c0.005-4.912,0.001-9.823,0.003-14.735c0-1.115,0.005-1.112,1.131-1.121
					c0.589-0.005,1.178,0.017,1.761-0.127c2.169-0.535,3.68-2.273,3.689-4.503C603.01,875.597,603.015,867.545,602.976,859.493z
					 M541.037,828.716c11.619-0.001,23.237-0.001,34.856,0c1.193,0,1.206,0.015,1.207,1.222c0.001,4.884-0.002,9.767,0.002,14.651
					c0.001,1.765,0.543,2.305,2.307,2.306c4.159,0.003,8.318,0,12.477,0.003c0.997,0.001,1.044,0.046,1.046,1.052
					c0.006,1.932,0.005,3.864,0,5.796c-0.003,1.038-0.051,1.085-1.098,1.085c-8.479,0.002-16.958,0.001-25.438,0.001
					c-8.452,0-16.905,0-25.357,0c-1.198,0-1.202-0.003-1.202-1.221c-0.001-7.889-0.001-15.778,0-23.667
					C539.838,828.724,539.847,828.716,541.037,828.716z M591.731,903.645c-8.454,0.001-16.908,0.001-25.362,0.001
					c-8.427,0-16.854,0.001-25.281,0c-1.245,0-1.249-0.003-1.249-1.262c-0.001-4.348-0.003-8.696,0.001-13.043
					c0.001-1.01,0.051-1.059,1.041-1.059c16.989-0.002,33.977-0.002,50.966,0c1.041,0,1.086,0.044,1.087,1.094
					c0.003,4.348,0.003,8.696,0.001,13.043C592.934,903.634,592.923,903.645,591.731,903.645z"/>
			</g>
			<g>
				<path style="fill:#FFFFFF;" d="M549.998,865.772v3.986h6.891v3.074h-6.891v3.986h7.659v3.073h-10.901v-17.193h10.901v3.073
					H549.998z"/>
				<path style="fill:#FFFFFF;" d="M560.635,879.891v-17.193h6.051c0.816,0,1.581,0.132,2.293,0.396
					c0.712,0.264,1.333,0.636,1.861,1.117c0.528,0.48,0.944,1.053,1.249,1.717c0.304,0.665,0.456,1.397,0.456,2.198
					c0,0.816-0.152,1.557-0.456,2.221c-0.305,0.664-0.721,1.236-1.249,1.717c-0.528,0.48-1.149,0.852-1.861,1.117
					c-0.713,0.264-1.477,0.396-2.293,0.396h-2.809v6.315H560.635z M566.735,870.503c0.848,0,1.489-0.241,1.921-0.721
					c0.432-0.48,0.648-1.032,0.648-1.656c0-0.304-0.052-0.601-0.156-0.889c-0.105-0.288-0.264-0.54-0.48-0.756
					c-0.216-0.217-0.484-0.388-0.805-0.516c-0.32-0.129-0.696-0.193-1.128-0.193h-2.857v4.731H566.735z"/>
				<path style="fill:#FFFFFF;" d="M580.109,880.275c-0.737,0-1.441-0.104-2.113-0.312c-0.672-0.208-1.289-0.52-1.849-0.936
					c-0.56-0.416-1.049-0.925-1.465-1.525c-0.416-0.601-0.744-1.301-0.985-2.101l3.049-1.2c0.224,0.864,0.616,1.581,1.177,2.149
					c0.56,0.568,1.296,0.852,2.209,0.852c0.336,0,0.66-0.044,0.973-0.132c0.312-0.087,0.592-0.216,0.84-0.384
					c0.248-0.168,0.444-0.38,0.588-0.636c0.144-0.256,0.217-0.552,0.217-0.888c0-0.32-0.057-0.608-0.168-0.865
					c-0.112-0.255-0.3-0.495-0.565-0.72c-0.264-0.224-0.608-0.44-1.032-0.648c-0.424-0.208-0.949-0.424-1.573-0.648l-1.056-0.384
					c-0.465-0.16-0.932-0.376-1.404-0.648c-0.473-0.272-0.901-0.6-1.285-0.985c-0.384-0.384-0.701-0.836-0.949-1.357
					c-0.248-0.52-0.372-1.108-0.372-1.765c0-0.672,0.132-1.301,0.396-1.885c0.264-0.584,0.64-1.096,1.129-1.537
					c0.489-0.44,1.073-0.784,1.753-1.032c0.68-0.248,1.437-0.372,2.269-0.372c0.865,0,1.613,0.116,2.246,0.348
					c0.632,0.232,1.168,0.528,1.609,0.888c0.44,0.36,0.796,0.757,1.068,1.188c0.272,0.433,0.472,0.84,0.601,1.225l-2.857,1.2
					c-0.161-0.48-0.453-0.913-0.877-1.297s-1.005-0.576-1.741-0.576c-0.705,0-1.289,0.164-1.753,0.492
					c-0.465,0.329-0.696,0.757-0.696,1.285c0,0.512,0.224,0.949,0.672,1.309c0.448,0.36,1.16,0.708,2.137,1.044l1.08,0.36
					c0.689,0.241,1.317,0.517,1.885,0.828c0.568,0.312,1.056,0.684,1.465,1.117c0.408,0.433,0.72,0.925,0.936,1.477
					c0.216,0.552,0.324,1.189,0.324,1.909c0,0.897-0.18,1.669-0.54,2.317c-0.36,0.648-0.821,1.181-1.38,1.597
					c-0.561,0.416-1.193,0.728-1.897,0.936C581.47,880.172,580.782,880.275,580.109,880.275z"/>
			</g>
			<g>
				<path style="fill:#FFFFFF;" d="M655.431,876.625l8.716-10.854h-8.332v-3.073h12.103v3.266l-8.621,10.854h8.716v3.073h-12.582
					V876.625z"/>
				<path style="fill:#FFFFFF;" d="M670.702,862.699h3.242v17.193h-3.242V862.699z"/>
				<path style="fill:#FFFFFF;" d="M677.402,879.891v-17.193h6.051c0.817,0,1.581,0.132,2.293,0.396
					c0.712,0.264,1.333,0.636,1.861,1.117s0.944,1.053,1.249,1.717c0.304,0.665,0.456,1.397,0.456,2.198
					c0,0.816-0.152,1.557-0.456,2.221c-0.305,0.664-0.721,1.236-1.249,1.717s-1.149,0.852-1.861,1.117
					c-0.713,0.264-1.477,0.396-2.293,0.396h-2.809v6.315H677.402z M683.501,870.503c0.848,0,1.489-0.241,1.921-0.721
					c0.433-0.48,0.648-1.032,0.648-1.656c0-0.304-0.052-0.601-0.156-0.889c-0.105-0.288-0.264-0.54-0.48-0.756
					c-0.216-0.217-0.484-0.388-0.805-0.516c-0.32-0.129-0.696-0.193-1.128-0.193h-2.857v4.731H683.501z"/>
			</g>
		</g>
		<g style="opacity:1;">
			<path style="fill:#FFFFFF;" d="M609.144,863.785h19.739v4.881h-19.739V863.785z M609.144,872.201h19.739v4.884h-19.739V872.201z"
				/>
		</g>
	</g>
	<g style="opacity:1;">
		<path style="fill:#FFFFFF;" d="M297,963.076h3.498c2.75,0,4.603,1.768,4.603,4.297s-1.854,4.296-4.603,4.296H297V963.076z
			 M300.449,970.883c2.283,0,3.756-1.448,3.756-3.51s-1.473-3.511-3.756-3.511h-2.541v7.021H300.449z"/>
		<path style="fill:#FFFFFF;" d="M315.251,967.373c0-2.504,1.915-4.37,4.517-4.37c2.577,0,4.505,1.853,4.505,4.37
			c0,2.516-1.927,4.369-4.505,4.369C317.166,971.742,315.251,969.877,315.251,967.373z M323.365,967.373
			c0-2.05-1.534-3.56-3.596-3.56c-2.075,0-3.621,1.51-3.621,3.56c0,2.049,1.546,3.559,3.621,3.559
			C321.831,970.932,323.365,969.422,323.365,967.373z"/>
		<path style="fill:#FFFFFF;" d="M346.724,963.076l-2.897,8.593h-0.957l-2.516-7.328l-2.529,7.328h-0.945l-2.897-8.593h0.933
			l2.479,7.389l2.566-7.389h0.847l2.529,7.426l2.516-7.426H346.724z"/>
		<path style="fill:#FFFFFF;" d="M364.435,963.076v8.593h-0.749l-5.524-6.972v6.972h-0.908v-8.593h0.749l5.536,6.973v-6.973H364.435
			z"/>
		<path style="fill:#FFFFFF;" d="M376.108,963.076h0.908v7.807h4.812v0.786h-5.72V963.076z"/>
		<path style="fill:#FFFFFF;" d="M391.279,967.373c0-2.504,1.915-4.37,4.517-4.37c2.577,0,4.505,1.853,4.505,4.37
			c0,2.516-1.927,4.369-4.505,4.369C393.194,971.742,391.279,969.877,391.279,967.373z M399.392,967.373
			c0-2.05-1.534-3.56-3.596-3.56c-2.075,0-3.621,1.51-3.621,3.56c0,2.049,1.546,3.559,3.621,3.559
			C397.858,970.932,399.392,969.422,399.392,967.373z"/>
		<path style="fill:#FFFFFF;" d="M416.478,969.374h-4.787l-1.031,2.295h-0.945l3.928-8.593h0.896l3.928,8.593h-0.957
			L416.478,969.374z M416.147,968.637l-2.062-4.615l-2.062,4.615H416.147z"/>
		<path style="fill:#FFFFFF;" d="M428.765,963.076h3.498c2.75,0,4.603,1.768,4.603,4.297s-1.854,4.296-4.603,4.296h-3.498V963.076z
			 M432.214,970.883c2.283,0,3.756-1.448,3.756-3.51s-1.473-3.511-3.756-3.511h-2.541v7.021H432.214z"/>
		<path style="fill:#FFFFFF;" d="M465.256,969.374h-4.787l-1.031,2.295h-0.945l3.928-8.593h0.896l3.928,8.593h-0.957
			L465.256,969.374z M464.925,968.637l-2.062-4.615l-2.062,4.615H464.925z"/>
		<path style="fill:#FFFFFF;" d="M477.543,963.076h0.908v7.807h4.812v0.786h-5.72V963.076z"/>
		<path style="fill:#FFFFFF;" d="M493.647,963.076h0.908v7.807h4.812v0.786h-5.72V963.076z"/>
		<path style="fill:#FFFFFF;" d="M522.749,963.862v3.376h4.443v0.786h-4.443v3.646h-0.909v-8.593h5.891v0.786H522.749z"/>
		<path style="fill:#FFFFFF;" d="M538.485,963.076h0.909v8.593h-0.909V963.076z"/>
		<path style="fill:#FFFFFF;" d="M551.067,963.076h0.909v7.807h4.811v0.786h-5.72V963.076z"/>
		<path style="fill:#FFFFFF;" d="M573.246,970.883v0.786h-6.076v-8.593h5.891v0.786h-4.983v3.056h4.443v0.774h-4.443v3.191H573.246z
			"/>
		<path style="fill:#FFFFFF;" d="M597.255,963.862v3.376h4.443v0.786h-4.443v3.646h-0.909v-8.593h5.891v0.786H597.255z"/>
		<path style="fill:#FFFFFF;" d="M612.119,967.373c0-2.504,1.915-4.37,4.517-4.37c2.577,0,4.505,1.853,4.505,4.37
			c0,2.516-1.927,4.369-4.505,4.369C614.034,971.742,612.119,969.877,612.119,967.373z M620.232,967.373
			c0-2.05-1.534-3.56-3.596-3.56c-2.075,0-3.622,1.51-3.622,3.56c0,2.049,1.547,3.559,3.622,3.559
			C618.698,970.932,620.232,969.422,620.232,967.373z"/>
		<path style="fill:#FFFFFF;" d="M637.919,971.669l-1.963-2.762c-0.222,0.024-0.442,0.037-0.688,0.037h-2.307v2.725h-0.909v-8.593
			h3.216c2.185,0,3.511,1.105,3.511,2.946c0,1.351-0.712,2.295-1.964,2.7l2.099,2.946H637.919z M637.871,966.022
			c0-1.375-0.909-2.161-2.627-2.161h-2.283v4.309h2.283C636.962,968.17,637.871,967.373,637.871,966.022z"/>
		<path style="fill:#FFFFFF;" d="M658.724,963.076v8.593h-0.871v-6.874l-3.376,5.782h-0.429l-3.376-5.745v6.837h-0.872v-8.593h0.749
			l3.732,6.371l3.695-6.371H658.724z"/>
		<path style="fill:#FFFFFF;" d="M675.787,969.374h-4.788l-1.031,2.295h-0.946l3.928-8.593h0.896l3.928,8.593h-0.957
			L675.787,969.374z M675.455,968.637l-2.062-4.615l-2.062,4.615H675.455z"/>
		<path style="fill:#FFFFFF;" d="M689.312,963.862h-3.02v-0.786h6.948v0.786h-3.02v7.807h-0.908V963.862z"/>
		<path style="fill:#FFFFFF;" d="M702.605,970.626l0.356-0.7c0.614,0.601,1.706,1.043,2.835,1.043c1.608,0,2.308-0.675,2.308-1.522
			c0-2.357-5.29-0.908-5.29-4.087c0-1.265,0.982-2.357,3.167-2.357c0.97,0,1.976,0.282,2.664,0.761l-0.307,0.724
			c-0.737-0.479-1.596-0.712-2.357-0.712c-1.571,0-2.271,0.7-2.271,1.559c0,2.357,5.29,0.933,5.29,4.063
			c0,1.265-1.006,2.344-3.204,2.344C704.508,971.742,703.243,971.288,702.605,970.626z"/>
	</g>
</g>
<g>
</g>
<g>
	<path style="fill:#0D0F0C;" d="M782.694,204.255c2.568,0,5.138,0.046,7.704-0.026c0.852-0.024,1.165,0.164,0.996,1.015
		c-0.05,0.253-0.008,0.525-0.008,0.789c0,195.975-0.002,391.949,0.037,587.924c0,1.481-0.333,1.815-1.814,1.815
		c-193.077-0.039-386.155-0.039-579.232,0c-1.48,0-1.816-0.332-1.815-1.814c0.039-196.436,0.037-392.872,0.037-589.308
		c0.819-0.384,1.687-0.181,2.529-0.181c189.681-0.011,379.361-0.01,569.042-0.021C781.009,204.448,781.88,204.66,782.694,204.255z"
		/>
	<path style="fill:#1A1C19;" d="M782.694,204.255c-0.689,0.796-1.603,0.374-2.395,0.374c-156.523,0.022-313.046,0.021-469.569,0.021
		c-34.044,0-68.088,0-102.132,0c0.086-0.122-0.2-0.412,0.198-0.399c0.526,0.017,1.053,0.004,1.58,0.004
		C401.149,204.255,591.922,204.255,782.694,204.255z"/>
	<path style="fill:#FFFFFF;" d="M708.422,403.106c0,41.682-0.01,83.364,0.038,125.046c0.002,1.66-0.28,2.208-2.091,2.164
		c-5.791-0.142-11.59-0.129-17.382-0.007c-1.702,0.036-1.99-0.478-1.989-2.064c0.043-65.783,0.037-131.566,0.037-197.349
		c0-10.338-0.01-20.676,0.015-31.015c0.003-1.066-0.02-1.717-1.45-1.525c-17.367,2.328-34.385,6.217-51.113,11.387
		c-31.73,9.807-61.5,23.706-88.813,42.703c-16.321,11.352-31.253,24.3-44.667,38.979c-0.877,0.96-1.305,1.024-2.221,0.02
		c-25.735-28.204-56.476-49.475-90.988-65.481c-23.222-10.769-47.41-18.664-72.43-24.011c-6.986-1.493-14.041-2.635-21.126-3.58
		c-0.988-0.132-1.514,0.005-1.353,1.145c0.064,0.452,0.01,0.92,0.01,1.381c0,75.66-0.009,151.32,0.05,226.98
		c0.002,1.98-0.444,2.494-2.43,2.435c-5.329-0.156-10.667-0.12-15.999-0.014c-1.613,0.032-2.08-0.348-2.073-2.025
		c0.07-15.737,0.041-31.475,0.041-47.213c0-67.495,0-134.99,0-202.484c0-2.702-0.001-2.681,2.733-2.51
		c38.857,2.438,76.18,11.505,112.172,26.169c26.928,10.971,51.926,25.323,74.697,43.462c5.714,4.551,11.272,9.294,16.509,14.395
		c0.901,0.877,1.423,1.102,2.486,0.105c32.898-30.859,71.447-52.017,114.006-66.26c18.648-6.241,37.696-10.899,57.085-14.129
		c11.602-1.933,23.277-3.307,35.035-3.906c0.992-0.051,1.319,0.22,1.219,1.167c-0.049,0.456-0.008,0.921-0.008,1.382
		C708.422,320.005,708.422,361.555,708.422,403.106z"/>
	<path style="fill:#FFFFFF;" d="M350.391,458.707c0-23.178,0.026-46.357-0.05-69.535c-0.006-1.777,0.529-2.181,2.154-2.234
		c8.713-0.285,17.357,0.45,25.926,1.892c17.341,2.919,33.68,8.666,48.71,17.895c23.389,14.362,39.82,34.698,50.883,59.585
		c5.681,12.778,9.697,26.088,12.295,39.82c0.336,1.773,0.93,2.437,2.872,2.361c4.734-0.184,9.48-0.093,14.221-0.038
		c1.174,0.014,1.669-0.23,1.927-1.536c4.42-22.414,11.835-43.679,24.659-62.781c18.506-27.565,44.213-44.859,76.237-52.964
		c12.085-3.058,24.381-4.515,36.875-4.263c2.079,0.042,2.492,0.726,2.489,2.694c-0.059,46.159-0.057,92.319-0.003,138.478
		c0.002,1.786-0.423,2.268-2.221,2.228c-5.594-0.126-11.195-0.118-16.789-0.002c-1.646,0.034-2.026-0.381-2.024-2.024
		c0.052-38.85,0.034-77.701,0.063-116.551c0.001-1.587,0.012-2.37-2.135-2.116c-20.039,2.368-37.749,10.076-53.06,23.141
		c-18.13,15.47-28.591,35.562-34.513,58.304c-3.206,12.312-4.733,24.868-5.398,37.541c-0.072,1.37-0.439,1.699-1.793,1.696
		c-20.479-0.048-40.957-0.048-61.436-0.002c-1.325,0.003-1.746-0.266-1.819-1.665c-0.79-15.044-2.833-29.887-7.372-44.313
		c-6.315-20.072-16.577-37.633-32.747-51.416c-12.712-10.835-27.312-17.902-43.571-21.591c-3.647-0.827-7.33-1.431-11.064-1.759
		c-1.105-0.097-1.451,0.187-1.355,1.227c0.042,0.457,0.007,0.921,0.007,1.382c0,38.521,0,77.042,0,115.563
		c0,2.54,0,2.539-2.632,2.539c-5.86-0.001-11.722-0.066-17.581,0.043c-1.554,0.029-1.786-0.463-1.783-1.867
		C350.404,505.196,350.391,481.952,350.391,458.707z"/>
	<path style="fill:#FFFFFF;" d="M332.472,584.405c-12.636,0.001-25.272-0.044-37.908,0.051c-1.822,0.014-2.138-0.523-2.115-2.197
		c0.097-7.238,0.083-14.478,0.016-21.717c-0.013-1.369,0.318-1.797,1.731-1.794c25.535,0.04,51.07,0.037,76.606,0.005
		c1.187-0.002,1.599,0.278,1.59,1.521c-0.054,7.568-0.087,15.137,0.009,22.704c0.021,1.621-0.819,1.432-1.823,1.432
		C357.875,584.401,345.173,584.404,332.472,584.405z"/>
	<path style="fill:#FFFFFF;" d="M668.508,584.406c-12.707,0-25.415-0.026-38.121,0.036c-1.451,0.007-1.854-0.304-1.836-1.807
		c0.089-7.373,0.072-14.748,0.009-22.122c-0.011-1.344,0.307-1.773,1.724-1.77c25.48,0.044,50.961,0.044,76.441,0
		c1.407-0.002,1.74,0.409,1.728,1.764c-0.064,7.439-0.064,14.88,0.001,22.319c0.011,1.302-0.35,1.613-1.626,1.609
		C694.055,584.387,681.282,584.406,668.508,584.406z"/>
	<path style="fill:#FFFFFF;" d="M501.004,584.405c-10.197,0-20.393-0.039-30.589,0.041c-1.588,0.012-1.911-0.456-1.895-1.95
		c0.078-7.367,0.071-14.736,0.005-22.103c-0.012-1.318,0.365-1.643,1.648-1.641c20.525,0.038,41.049,0.044,61.574-0.008
		c1.469-0.004,1.698,0.506,1.688,1.798c-0.053,7.433-0.064,14.867,0.008,22.3c0.013,1.344-0.419,1.594-1.651,1.588
		C521.529,584.385,511.266,584.405,501.004,584.405z"/>
	<path style="fill:#FFFFFF;" d="M314.88,673.042c0.924-4.003,1.847-8.006,2.771-12.009c1.31-5.673,2.652-11.339,3.899-17.026
		c0.2-0.911,0.52-1.182,1.403-1.176c4.411,0.032,8.823,0.039,13.234-0.006c0.986-0.01,1.198,0.36,1.196,1.268
		c-0.024,13.3-0.03,26.601,0.007,39.901c0.003,1.108-0.427,1.318-1.388,1.297c-2.172-0.049-4.35-0.102-6.517,0.011
		c-1.328,0.07-1.606-0.392-1.6-1.643c0.049-10.205,0.028-20.411,0.029-30.617c0-0.328,0-0.655,0-0.983
		c-0.101-0.024-0.201-0.047-0.302-0.071c-0.814,3.073-1.639,6.143-2.44,9.22c-1.961,7.53-3.95,15.052-5.821,22.604
		c-0.285,1.152-0.709,1.521-1.816,1.484c-1.776-0.06-3.558-0.081-5.331,0.002c-1.248,0.058-1.798-0.301-2.132-1.625
		c-2.541-10.078-5.198-20.126-7.798-30.189c-0.131-0.506-0.213-1.004-0.764-1.639c0,2.204,0,4.18,0,6.157
		c0,8.494-0.044,16.988,0.041,25.481c0.015,1.516-0.406,1.915-1.856,1.82c-1.901-0.125-3.824-0.132-5.724,0.004
		c-1.531,0.11-1.839-0.46-1.832-1.892c0.057-11.588,0.013-23.177,0.05-34.765c0.006-1.881-0.843-4.386,0.375-5.468
		c1.048-0.931,3.499-0.311,5.33-0.328c2.699-0.025,5.404,0.094,8.096-0.049c1.346-0.071,1.788,0.42,2.057,1.621
		c1.989,8.872,4.028,17.733,6.054,26.597c0.146,0.637,0.317,1.268,0.476,1.902C314.677,672.963,314.779,673.003,314.88,673.042z"/>
	<path style="fill:#FFFFFF;" d="M482.864,651.719c0,4.584,0,9.168,0,13.752c0,6.058-0.035,12.116,0.029,18.172
		c0.013,1.254-0.281,1.735-1.602,1.663c-1.97-0.107-3.955-0.125-5.923-0.004c-1.462,0.09-1.92-0.338-1.899-1.849
		c0.086-6.056,0.036-12.115,0.036-18.172c0-6.848,0.046-13.696-0.035-20.543c-0.018-1.56,0.442-1.985,1.98-1.929
		c3.354,0.121,6.719,0.133,10.071-0.007c1.447-0.06,2.049,0.541,2.632,1.707c4.094,8.188,8.246,16.347,12.383,24.514
		c0.259,0.511,0.548,1.008,1.181,1.466c0-0.54,0-1.081,0-1.621c0-8.099,0.03-16.197-0.033-24.296
		c-0.01-1.339,0.265-1.849,1.702-1.76c2.099,0.13,4.213,0.075,6.318,0.008c1.003-0.032,1.386,0.248,1.384,1.309
		c-0.028,13.3-0.025,26.601-0.005,39.901c0.001,0.939-0.329,1.271-1.261,1.256c-2.633-0.04-5.268-0.061-7.899,0.008
		c-1.168,0.03-1.372-0.82-1.754-1.55c-5.321-10.149-10.636-20.301-15.956-30.45c-0.3-0.571-0.631-1.126-0.948-1.689
		C483.132,651.643,482.998,651.681,482.864,651.719z"/>
	<path style="fill:#FFFFFF;" d="M417.22,685.27c-2.926,0-5.81-0.035-8.692,0.018c-1.096,0.02-1.237-0.806-1.563-1.477
		c-2.397-4.941-4.809-9.875-7.133-14.851c-0.46-0.986-0.983-1.354-2.054-1.277c-1.374,0.099-2.77,0.119-4.14-0.003
		c-1.35-0.119-1.782,0.255-1.753,1.684c0.099,4.8-0.008,9.605,0.068,14.406c0.019,1.23-0.33,1.578-1.533,1.527
		c-2.167-0.092-4.342-0.073-6.511-0.007c-1.024,0.031-1.495-0.125-1.491-1.343c0.045-13.289,0.029-26.578,0.024-39.866
		c0-0.683-0.079-1.282,0.963-1.25c7.159,0.221,14.34-0.464,21.48,0.406c6.898,0.841,11.684,6.47,11.163,13.107
		c-0.328,4.172-2.792,7.034-6.357,8.849c-1.418,0.723-1.332,1.257-0.757,2.417c2.584,5.213,5.103,10.458,7.641,15.694
		C416.852,683.877,417.297,684.399,417.22,685.27z"/>
	<path style="fill:#FFFFFF;" d="M614.394,664.002c0-6.51,0.03-13.021-0.027-19.53c-0.011-1.242,0.248-1.704,1.6-1.656
		c5.834,0.206,11.681-0.28,17.5,0.738c13.386,2.342,17.758,12.222,16.671,23.441c-0.579,5.984-2.905,11.127-8.006,14.685
		c-3.023,2.109-6.42,3.301-10.085,3.417c-5.387,0.17-10.782,0.103-16.172,0.208c-1.226,0.024-1.522-0.381-1.512-1.574
		C614.425,677.155,614.394,670.578,614.394,664.002z"/>
	<path style="fill:#FFFFFF;" d="M710.05,664.219c-0.131,7.035-2.062,13.372-7.756,17.944c-7.712,6.193-22.834,5.562-28.416-6.335
		c-4.289-9.141-3.982-18.273,1.996-26.619c4.435-6.191,11.075-7.752,18.242-6.666c7.613,1.153,12.266,6.014,14.67,13.149
		C709.712,658.441,710.181,661.286,710.05,664.219z"/>
	<path style="fill:#FFFFFF;" d="M608.075,658.973c0,4.211,0.006,8.421-0.001,12.632c-0.012,7.312-3.452,11.782-10.578,13.591
		c-4.958,1.259-9.893,1.132-14.652-0.868c-5.259-2.211-7.925-6.289-7.964-11.963c-0.064-9.276,0.014-18.553-0.052-27.829
		c-0.01-1.382,0.325-1.811,1.723-1.722c2.031,0.129,4.083,0.132,6.114-0.001c1.455-0.096,1.704,0.453,1.695,1.776
		c-0.053,8.618-0.021,17.237-0.015,25.855c0,0.526-0.012,1.055,0.032,1.578c0.599,7.213,6.355,7.796,10.791,6.027
		c2.747-1.095,3.351-3.761,3.38-6.389c0.099-8.88,0.139-17.763,0.048-26.643c-0.019-1.88,0.553-2.34,2.297-2.204
		c1.896,0.148,3.819,0.126,5.719,0.002c1.29-0.085,1.502,0.397,1.488,1.554C608.04,649.236,608.075,654.105,608.075,658.973z"/>
	<path style="fill:#FFFFFF;" d="M567.248,685.271c-4.594,0-4.576-0.005-5.873-4.448c-0.583-1.998-0.698-4.602-2.038-5.781
		c-1.391-1.225-4.03-0.277-6.121-0.37c-0.92-0.041-1.843-0.007-2.765-0.007c-4.971,0-4.971,0-6.334,4.667
		c-0.565,1.935-0.489,4.51-1.931,5.609c-1.466,1.117-3.938,0.287-5.968,0.317c-3.38,0.05-3.398,0.008-2.409-3.163
		c3.93-12.594,7.889-25.18,11.781-37.786c0.352-1.139,0.821-1.526,2.02-1.493c3.29,0.091,6.584,0.058,9.876,0.015
		c0.929-0.012,1.345,0.243,1.648,1.207c4.187,13.338,8.411,26.664,12.702,39.969c0.424,1.315-0.113,1.29-1.033,1.271
		C569.619,685.252,568.433,685.271,567.248,685.271z"/>
	<path style="fill:#FFFFFF;" d="M360.377,642.846c1.685,0.141,4.212-0.816,5.601,0.343c1.272,1.062,1.341,3.566,1.936,5.437
		c3.702,11.641,7.376,23.29,11.138,34.912c0.482,1.489,0.175,1.819-1.29,1.756c-2.169-0.093-4.345-0.058-6.517-0.016
		c-0.923,0.018-1.369-0.252-1.615-1.231c-0.654-2.596-1.503-5.142-2.197-7.729c-0.306-1.141-0.728-1.738-2.099-1.694
		c-3.618,0.117-7.243,0.095-10.863,0.011c-1.309-0.03-1.79,0.47-2.098,1.685c-0.659,2.596-1.568,5.128-2.227,7.723
		c-0.254,1-0.729,1.255-1.635,1.244c-2.239-0.029-4.484-0.114-6.714,0.019c-1.576,0.094-1.48-0.562-1.132-1.672
		c3.74-11.899,7.453-23.806,11.194-35.705c0.524-1.666,0.484-3.997,1.784-4.797c1.302-0.802,3.439-0.247,5.21-0.284
		C359.246,642.839,359.642,642.846,360.377,642.846z"/>
	<path style="fill:#FFFFFF;" d="M626.238,716.159c0,8.07-0.042,15.57,0.035,23.069c0.016,1.516-0.325,2.114-1.923,1.95
		c-1.433-0.147-2.897-0.098-4.34-0.009c-1.076,0.066-1.315-0.351-1.312-1.353c0.03-10.73,0.034-21.461-0.007-32.191
		c-0.004-1.072,0.343-1.32,1.341-1.293c2.565,0.07,5.394-0.631,7.628,0.235c2.264,0.878,3.037,3.917,4.463,6.004
		c2.962,4.334,5.793,8.758,8.679,13.144c0.276,0.42,0.444,0.933,1.206,1.275c0-1.721,0-3.325,0-4.929
		c0-4.74,0.045-9.48-0.031-14.219c-0.02-1.222,0.3-1.6,1.524-1.518c1.638,0.11,3.291,0.066,4.935,0.008
		c0.851-0.03,1.122,0.236,1.12,1.104c-0.026,10.862-0.025,21.724-0.005,32.586c0.002,0.832-0.222,1.178-1.106,1.144
		c-1.578-0.06-3.163-0.088-4.737-0.002c-1.117,0.061-1.427-0.734-1.885-1.429c-4.765-7.232-9.529-14.464-14.295-21.694
		C627.215,717.562,626.882,717.095,626.238,716.159z"/>
	<path style="fill:#FFFFFF;" d="M461.215,716.774c0,7.355-0.065,14.712,0.045,22.066c0.028,1.896-0.466,2.602-2.388,2.324
		c-1.664-0.241-3.838,0.714-4.912-0.406c-0.976-1.018-0.276-3.137-0.281-4.768c-0.025-9.282,0.027-18.565-0.051-27.846
		c-0.013-1.53,0.434-1.909,1.884-1.823c2.489,0.147,5.386-0.662,7.37,0.364c1.89,0.978,2.85,3.777,4.188,5.797
		c3.178,4.798,6.337,9.609,9.569,14.514c0.457-0.625,0.271-1.22,0.272-1.758c0.017-5.793,0.048-11.586-0.02-17.379
		c-0.014-1.235,0.341-1.607,1.549-1.532c1.574,0.098,3.162,0.09,4.737,0.002c1.079-0.061,1.295,0.358,1.292,1.349
		c-0.031,10.664-0.041,21.329,0.009,31.994c0.006,1.275-0.428,1.498-1.59,1.504c-5.105,0.027-5.098,0.061-7.888-4.191
		c-4.247-6.474-8.503-12.942-12.756-19.412c-0.208-0.316-0.428-0.624-0.642-0.936C461.473,716.682,461.344,716.728,461.215,716.774z
		"/>
	<path style="fill:#FFFFFF;" d="M508.906,723.729c0.001-5.201,0.042-10.404-0.028-15.604c-0.017-1.294,0.174-1.875,1.668-1.793
		c5.116,0.279,10.268-0.441,15.363,0.475c9.435,1.695,14.108,8.671,13.57,17.802c-0.501,8.504-4.017,13.185-10.93,15.309
		c-2.717,0.835-5.532,1.134-8.359,1.194c-3.225,0.069-6.454-0.034-9.677,0.064c-1.306,0.04-1.656-0.356-1.639-1.646
		C508.946,734.264,508.905,728.997,508.906,723.729z"/>
	<path style="fill:#FFFFFF;" d="M595.118,723.836c-0.158,6.979-2.305,12.928-9.003,16.213c-8.63,4.234-21.609,0.898-23.554-12.67
		c-0.835-5.825-0.137-11.332,3.642-15.989c4.391-5.412,10.345-6.769,16.87-5.193c6.412,1.549,10.028,6.043,11.553,12.343
		C595.049,720.282,595.071,722.05,595.118,723.836z"/>
	<path style="fill:#FFFFFF;" d="M397.285,723.935c0.082-6.282,1.713-11.657,6.871-15.362c8.16-5.862,23.275-3.538,25.677,11.101
		c0.921,5.612,0.294,11.051-3.156,15.77c-4.045,5.533-9.826,7.076-16.248,5.966c-6.83-1.18-10.831-5.644-12.562-12.246
		C397.398,727.373,397.391,725.529,397.285,723.935z"/>
	<path style="fill:#FFFFFF;" d="M441.361,667.723c0,5.266-0.042,10.532,0.03,15.796c0.018,1.311-0.213,1.892-1.685,1.79
		c-1.965-0.136-3.954-0.139-5.919-0.006c-1.531,0.103-1.852-0.455-1.843-1.898c0.062-10.465,0.005-20.931,0.07-31.396
		c0.01-1.575-0.328-2.166-2.032-2.075c-2.953,0.157-5.923-0.003-8.883,0.066c-1.108,0.026-1.537-0.283-1.442-1.428
		c0.151-1.823-0.734-4.183,0.333-5.343c1.088-1.183,3.477-0.356,5.29-0.365c8.885-0.041,17.772,0.017,26.657-0.052
		c1.394-0.011,1.848,0.345,1.725,1.732c-0.122,1.371-0.093,2.766-0.005,4.143c0.067,1.054-0.307,1.333-1.328,1.313
		c-3.092-0.061-6.19,0.055-9.279-0.058c-1.439-0.052-1.737,0.445-1.719,1.786C441.404,657.06,441.36,662.392,441.361,667.723z"/>
	<path style="fill:#FFFFFF;" d="M457.5,663.964c0-6.452,0.056-12.905-0.041-19.356c-0.023-1.534,0.431-1.888,1.871-1.795
		c2.033,0.132,4.081,0.082,6.12,0.015c1.038-0.034,1.516,0.148,1.513,1.364c-0.042,13.234-0.041,26.468,0,39.701
		c0.004,1.207-0.48,1.424-1.514,1.399c-2.171-0.053-4.35-0.113-6.516,0.013c-1.337,0.078-1.464-0.48-1.456-1.589
		C457.523,677.132,457.5,670.548,457.5,663.964z"/>
	<path style="fill:#FFFFFF;" d="M655.963,663.964c0-6.381,0.065-12.763-0.044-19.142c-0.029-1.697,0.497-2.119,2.089-2.008
		c1.964,0.137,3.947,0.091,5.917,0.01c1.075-0.044,1.479,0.201,1.475,1.381c-0.041,13.222-0.039,26.444-0.001,39.667
		c0.003,1.125-0.318,1.465-1.43,1.424c-2.168-0.08-4.343-0.086-6.511,0.002c-1.25,0.051-1.529-0.429-1.519-1.599
		C655.989,677.12,655.963,670.542,655.963,663.964z"/>
	<path style="fill:#FFFFFF;" d="M350.393,723.672c-0.002-5.265,0.033-10.53-0.029-15.795c-0.014-1.172,0.217-1.662,1.497-1.554
		c1.438,0.121,2.907,0.152,4.338-0.005c1.613-0.177,1.77,0.552,1.76,1.905c-0.057,8.292,0.001,16.585-0.059,24.877
		c-0.01,1.376,0.202,1.911,1.774,1.869c4.735-0.126,9.476-0.015,14.214-0.067c1.053-0.012,1.464,0.179,1.488,1.363
		c0.096,4.883,0.142,4.882-4.682,4.882c-6.186,0-12.373-0.039-18.559,0.031c-1.34,0.015-1.8-0.277-1.776-1.711
		C350.449,734.203,350.395,728.937,350.393,723.672z"/>
	<path style="fill:#FAFAFB;" d="M718.199,281.404c0.073-4.679,3.821-8.294,8.493-8.195c4.784,0.102,8.284,3.802,8.219,8.69
		c-0.06,4.554-3.917,8.183-8.612,8.103C721.719,289.925,718.125,286.111,718.199,281.404z"/>
	<path style="fill:#0E100D;" d="M392.029,655.31c0-1.7-0.667-3.978,0.174-4.951c0.987-1.142,3.323-0.3,5.072-0.371
		c2.039-0.082,4.075,0.055,6.018,0.745c2.258,0.802,3.311,2.411,3.248,4.816c-0.056,2.126-1.171,3.579-3.377,4.288
		c-3.456,1.111-7.029,0.652-10.561,0.736c-0.854,0.02-0.668-0.637-0.674-1.121c-0.018-1.38-0.007-2.761-0.007-4.142
		C391.957,655.31,391.993,655.31,392.029,655.31z"/>
	<path style="fill:#0E100D;" d="M623.863,663.921c0-4.139,0.042-8.278-0.027-12.416c-0.019-1.169,0.226-1.624,1.497-1.563
		c1.965,0.095,3.926,0.091,5.885,0.379c4.853,0.714,8.119,3.615,9.036,8.731c0.745,4.155,0.61,8.363-0.964,12.39
		c-1.588,4.062-4.609,6.213-8.93,6.574c-2.093,0.175-4.777,0.928-6.113-0.173c-1.256-1.036-0.326-3.826-0.369-5.843
		C623.82,669.309,623.863,666.614,623.863,663.921z"/>
	<path style="fill:#0E100D;" d="M680.744,664.258c0.096-3.57,0.561-6.928,2.025-10.07c1.543-3.311,4.107-5.3,7.822-5.316
		c3.72-0.016,6.403,1.929,7.836,5.274c2.817,6.577,2.842,13.274,0.017,19.848c-1.419,3.301-3.974,5.279-7.802,5.274
		c-3.9-0.005-6.345-2.045-7.922-5.4C681.268,670.78,680.884,667.476,680.744,664.258z"/>
	<path style="fill:#0F110E;" d="M552.61,649.95c1.292,4.551,2.525,8.723,3.646,12.924c0.434,1.626,1.83,3.713,1.012,4.776
		c-0.92,1.194-3.281,0.274-5.008,0.403c-0.719,0.053-1.444,0.008-2.167,0.009c-2.744,0.003-2.753,0.001-2.045-2.53
		c1.3-4.646,2.608-9.289,3.924-13.93C552.093,651.171,552.293,650.762,552.61,649.95z"/>
	<path style="fill:#0E100E;" d="M354.717,668.062c1.71-6.102,3.328-11.878,4.946-17.649c0.746,0.02,0.585,0.602,0.696,0.994
		c1.429,5.026,2.818,10.063,4.305,15.071c0.394,1.327,0.1,1.656-1.255,1.612C360.588,667.997,357.761,668.062,354.717,668.062z"/>
	<path style="fill:#0E100D;" d="M516.441,723.738c0-3.222,0.076-6.447-0.035-9.666c-0.049-1.437,0.445-1.781,1.784-1.715
		c1.966,0.096,3.931,0.029,5.887,0.391c3.909,0.725,6.558,2.735,7.44,6.786c0.568,2.609,0.673,5.231,0.112,7.813
		c-1.016,4.68-4.383,7.15-9.946,7.517c-5.244,0.346-5.244,0.345-5.244-4.813C516.441,727.946,516.441,725.842,516.441,723.738z"/>
	<path style="fill:#0E100D;" d="M587.522,723.673c0.101,2.562-0.241,4.887-1.216,7.076c-1.45,3.254-3.963,4.933-7.563,4.94
		c-3.586,0.007-6.235-1.568-7.586-4.875c-1.913-4.682-1.9-9.479-0.037-14.178c1.338-3.373,4.68-5.319,8.143-5.016
		c4.043,0.353,6.826,2.882,7.799,7.144C587.443,720.431,587.653,722.127,587.522,723.673z"/>
	<path style="fill:#0E100D;" d="M404.87,723.651c-0.013-2.136,0.202-4.282,0.947-6.343c1.289-3.567,4.26-5.7,7.905-5.698
		c3.586,0.002,6.573,2.008,7.795,5.54c1.596,4.611,1.625,9.273-0.322,13.808c-1.387,3.23-3.993,4.714-7.479,4.73
		c-3.509,0.017-6.018-1.591-7.519-4.718C405.099,728.681,404.855,726.2,404.87,723.651z"/>
	<path style="fill:#0D100D;" d="M733.737,281.565c0.019,4.079-3.099,7.233-7.16,7.244c-4.05,0.011-7.245-3.153-7.258-7.186
		c-0.013-4.008,3.218-7.293,7.2-7.321C730.458,274.274,733.719,277.556,733.737,281.565z"/>
	<path style="fill:#F0EFEE;" d="M730.721,286.285c-1.189,0.402-1.632,0.024-1.744-1.127c-0.299-3.073-0.342-2.983-3.151-3.081
		c-1.412-0.049-1.786,0.385-1.738,1.755c0.03,0.842,0.638,2.454-0.541,2.471c-1.555,0.022-0.682-1.627-0.742-2.5
		c-0.141-2.03-0.019-4.078-0.059-6.117c-0.016-0.828,0.234-1.192,1.116-1.153c1.38,0.06,2.771-0.06,4.144,0.053
		c1.719,0.142,3.105,1.791,2.348,3.108c-1.313,2.284,0.199,4.218,0.249,6.306C730.604,286.061,730.651,286.121,730.721,286.285z"/>
	<path style="fill:#0E100D;" d="M726.332,277.674c1.142,0.113,2.728-0.382,2.722,1.587c-0.007,2.334-1.888,1.569-3.18,1.807
		c-1.572,0.29-1.695-0.476-1.798-1.815C723.916,277.168,725.265,277.754,726.332,277.674z"/>
</g>
</svg>
