<svg height="40" viewBox="0 0 159 40" width="159" xmlns="http://www.w3.org/2000/svg"><g fill="none" fillRule="evenodd"><g fill="#1e1e1e"><path d="m103.782627 19.953472c2.019652-.52128 3.648362-1.23808 4.886451-2.34624 3.583418-3.58368 3.192477-6.97248 3.25774-7.29888.260415-5.4736-4.104567-7.62432-8.730283-7.62432h-22.1963364l-5.76367 35.58144h20.0112857c8.3844507 0 13.4436577-2.63872 14.3986177-10.88256.27865-4.23744-1.451795-6.88928-5.863805-7.42944m-7.166197 6.97312c-.5214688 2.28064-1.6290302 2.6064-3.7139457 2.6064h-4.4625573l.8391489-5.14816h4.6660261c1.6287103 0 3.1924769 0 2.671328 2.54176m1.9543883-13.68576c-.325998 2.15072-1.4988229 2.672-3.2577404 2.672h-4.6724246l.8081167-5.0176h4.7114547c1.3679759 0 2.6710081.65152 2.4105936 2.3456"/><path d="m19.8893644 38.40224 13.5873018.01184-3.0584306-15.50176c10.0630684-3.37376 14.2671308-20.01632-2.3312535-20.16832h-22.15122737l-5.75919115 35.58208h11.66714492l2.2480744-13.89568h4.2942797zm6.0183259-25.10048c-.3259979 2.1504-1.498503 2.67168-3.2577404 2.67168h-7.1684366l.8129155-5.01792h7.2023481c1.3682957 0 2.6713279.65184 2.4109134 2.34624z"/><path d="m58.253633 1.120992h-.9517606c-10.1884768.25056-18.4711931 8.53248-18.7239295 18.89888-.1954709 10.68736 8.2091348 19.54976 18.8288631 19.81056 10.6194085.19552 19.4152757-8.27616 19.6756902-18.96384.2604145-10.68736-8.1441912-19.55008-18.8288632-19.7456m-.5864125 28.15264c-4.9513943-.13088-8.8604909-4.17088-8.7302837-9.12384.1305272-4.88768 4.169831-8.73248 9.1212254-8.60192 4.9517143.06496 8.8604909 4.1056 8.7302837 9.05824-.0652636 4.88736-4.1695111 8.73248-9.1212254 8.66752"/></g><path d="m147.025189 25.256608c3.778889 0 6.841158 3.06304 6.841158 6.84256 0 3.77984-3.062269 6.8432-6.841158 6.8432-3.77889 0-6.84084-3.06336-6.84084-6.8432 0-3.77952 3.06195-6.84256 6.84084-6.84256" fill="#e00034"/><path d="m122.328905 16.456c1.480908-2.98944 4.602363-5.0032 8.208175-4.90816 3.457051.04576 6.405429 2.02944 7.826192 4.90816zm7.817554 12.8176c-3.425379-.40704-6.390393-2.07808-7.815314-4.9488h1.182102v-.0352h25.664264c.224264-1.10848.355431-2.25248.383903-3.42304.260735-10.68736-8.143871-19.55008-18.828543-19.7456h-.95208c-10.188477.25056-18.470873 8.53248-18.72361 18.89888-.195791 10.68736 8.209135 19.54976 18.828543 19.81056 3.624369.06688 7.03535-.8768 9.967733-2.57312l-1.200978-10.04864c-1.600557 1.31616-5.786384 2.38784-8.50602 2.06496z" fill="#1e1e1e"/><path d="m152.332301 4.938016h1.070131c.511552 0 .858344-.0784 1.046137-.2304.186193-.15072.27865-.35296.27865-.60608 0-.16096-.043509-.30464-.133726-.4336-.091497-.12608-.215306-.2224-.373986-.2848-.15868-.06464-.454286-.09408-.884258-.09408h-1.002948zm-.882018 3.07296v-5.46144h1.878568c.640159 0 1.104042.04864 1.39133.1488.286328.10144.51635.27808.686227.52896.170197.25216.255296.51904.255296.80064 0 .4-.143004.7472-.427733 1.0432-.284088.29664-.660953.46112-1.132195.49792.193232.08032.346793.17664.464523.2896.220425.21536.489157.57664.805558 1.08384l.666392 1.06848h-1.074929l-.484039-.86208c-.381664-.67488-.689106-1.09952-.923287-1.26912-.1606-.12608-.39734-.18848-.704783-.18848h-.51891v2.31968zm2.22728-7.04384c-.711821 0-1.407006.18336-2.082356.54848-.67471.36512-1.202898.88896-1.584242 1.56704-.380704.67936-.571056 1.38688-.571056 2.12416 0 .73056.187793 1.43104.562099 2.1008.374305.6704.897374 1.19456 1.570485 1.56864.67247.37408 1.375014.56256 2.10507.56256s1.4326-.18848 2.10539-.56256c.672791-.37408 1.195859-.89824 1.568246-1.56864.371746-.66976.557939-1.37024.557939-2.1008 0-.73728-.190672-1.4448-.569776-2.12416-.378465-.67808-.906652-1.20192-1.584242-1.56704-.676949-.36512-1.368295-.54848-2.077557-.54848zm0-.84064c.851946 0 1.682777.21824 2.495692.65472.812596.43872 1.444117 1.06304 1.896483 1.8784.452366.8128.679509 1.66304.679509 2.5472 0 .87424-.222664 1.71488-.667992 2.52128-.448207.80896-1.07269 1.4352-1.877927 1.88032-.803638.44896-1.646306.67104-2.525765.67104s-1.719567-.22208-2.525125-.67104c-.805877-.44512-1.432919-1.07136-1.880167-1.88032-.448207-.8064-.67343-1.64704-.67343-2.52128 0-.88416.227462-1.7344.684627-2.5472.454606-.81536 1.088367-1.43968 1.898723-1.8784.812275-.43648 1.643746-.65472 2.495372-.65472z" fill="#1e1e1e"/></g></svg>
